<?xml version="1.0" encoding="utf-8" standalone="no"?>
<!DOCTYPE svg PUBLIC "-//W3C//DTD SVG 1.1//EN"
  "http://www.w3.org/Graphics/SVG/1.1/DTD/svg11.dtd">
<!-- Created with matplotlib (http://matplotlib.org/) -->
<svg height="360pt" version="1.1" viewBox="0 0 864 360" width="864pt" xmlns="http://www.w3.org/2000/svg" xmlns:xlink="http://www.w3.org/1999/xlink">
 <defs>
  <style type="text/css">
*{stroke-linecap:butt;stroke-linejoin:round;}
  </style>
 </defs>
 <g id="figure_1">
  <g id="patch_1">
   <path d="M 0 360 
L 864 360 
L 864 0 
L 0 0 
z
" style="fill:#ffffff;"/>
  </g>
  <g id="axes_1">
   <g id="patch_2">
    <path d="M 56.05 318.2 
L 423.1 318.2 
L 423.1 26.8 
L 56.05 26.8 
z
" style="fill:#ffffff;"/>
   </g>
   <g id="matplotlib.axis_1">
    <g id="xtick_1">
     <g id="line2d_1">
      <defs>
       <path d="M 0 0 
L 0 3.5 
" id="mdb2c3584d7" style="stroke:#000000;stroke-width:0.8;"/>
      </defs>
      <g>
       <use style="stroke:#000000;stroke-width:0.8;" x="72.734091" xlink:href="#mdb2c3584d7" y="318.2"/>
      </g>
     </g>
     <g id="text_1">
      <!-- 0 -->
      <defs>
       <path d="M 31.78125 66.40625 
Q 24.171875 66.40625 20.328125 58.90625 
Q 16.5 51.421875 16.5 36.375 
Q 16.5 21.390625 20.328125 13.890625 
Q 24.171875 6.390625 31.78125 6.390625 
Q 39.453125 6.390625 43.28125 13.890625 
Q 47.125 21.390625 47.125 36.375 
Q 47.125 51.421875 43.28125 58.90625 
Q 39.453125 66.40625 31.78125 66.40625 
z
M 31.78125 74.21875 
Q 44.046875 74.21875 50.515625 64.515625 
Q 56.984375 54.828125 56.984375 36.375 
Q 56.984375 17.96875 50.515625 8.265625 
Q 44.046875 -1.421875 31.78125 -1.421875 
Q 19.53125 -1.421875 13.0625 8.265625 
Q 6.59375 17.96875 6.59375 36.375 
Q 6.59375 54.828125 13.0625 64.515625 
Q 19.53125 74.21875 31.78125 74.21875 
z
" id="DejaVuSans-30"/>
      </defs>
      <g transform="translate(69.552841 332.798438)scale(0.1 -0.1)">
       <use xlink:href="#DejaVuSans-30"/>
      </g>
     </g>
    </g>
    <g id="xtick_2">
     <g id="line2d_2">
      <g>
       <use style="stroke:#000000;stroke-width:0.8;" x="125.841202" xlink:href="#mdb2c3584d7" y="318.2"/>
      </g>
     </g>
     <g id="text_2">
      <!-- 1 -->
      <defs>
       <path d="M 12.40625 8.296875 
L 28.515625 8.296875 
L 28.515625 63.921875 
L 10.984375 60.40625 
L 10.984375 69.390625 
L 28.421875 72.90625 
L 38.28125 72.90625 
L 38.28125 8.296875 
L 54.390625 8.296875 
L 54.390625 0 
L 12.40625 0 
z
" id="DejaVuSans-31"/>
      </defs>
      <g transform="translate(122.659952 332.798438)scale(0.1 -0.1)">
       <use xlink:href="#DejaVuSans-31"/>
      </g>
     </g>
    </g>
    <g id="xtick_3">
     <g id="line2d_3">
      <g>
       <use style="stroke:#000000;stroke-width:0.8;" x="178.948312" xlink:href="#mdb2c3584d7" y="318.2"/>
      </g>
     </g>
     <g id="text_3">
      <!-- 2 -->
      <defs>
       <path d="M 19.1875 8.296875 
L 53.609375 8.296875 
L 53.609375 0 
L 7.328125 0 
L 7.328125 8.296875 
Q 12.9375 14.109375 22.625 23.890625 
Q 32.328125 33.6875 34.8125 36.53125 
Q 39.546875 41.84375 41.421875 45.53125 
Q 43.3125 49.21875 43.3125 52.78125 
Q 43.3125 58.59375 39.234375 62.25 
Q 35.15625 65.921875 28.609375 65.921875 
Q 23.96875 65.921875 18.8125 64.3125 
Q 13.671875 62.703125 7.8125 59.421875 
L 7.8125 69.390625 
Q 13.765625 71.78125 18.9375 73 
Q 24.125 74.21875 28.421875 74.21875 
Q 39.75 74.21875 46.484375 68.546875 
Q 53.21875 62.890625 53.21875 53.421875 
Q 53.21875 48.921875 51.53125 44.890625 
Q 49.859375 40.875 45.40625 35.40625 
Q 44.1875 33.984375 37.640625 27.21875 
Q 31.109375 20.453125 19.1875 8.296875 
z
" id="DejaVuSans-32"/>
      </defs>
      <g transform="translate(175.767062 332.798438)scale(0.1 -0.1)">
       <use xlink:href="#DejaVuSans-32"/>
      </g>
     </g>
    </g>
    <g id="xtick_4">
     <g id="line2d_4">
      <g>
       <use style="stroke:#000000;stroke-width:0.8;" x="232.055423" xlink:href="#mdb2c3584d7" y="318.2"/>
      </g>
     </g>
     <g id="text_4">
      <!-- 3 -->
      <defs>
       <path d="M 40.578125 39.3125 
Q 47.65625 37.796875 51.625 33 
Q 55.609375 28.21875 55.609375 21.1875 
Q 55.609375 10.40625 48.1875 4.484375 
Q 40.765625 -1.421875 27.09375 -1.421875 
Q 22.515625 -1.421875 17.65625 -0.515625 
Q 12.796875 0.390625 7.625 2.203125 
L 7.625 11.71875 
Q 11.71875 9.328125 16.59375 8.109375 
Q 21.484375 6.890625 26.8125 6.890625 
Q 36.078125 6.890625 40.9375 10.546875 
Q 45.796875 14.203125 45.796875 21.1875 
Q 45.796875 27.640625 41.28125 31.265625 
Q 36.765625 34.90625 28.71875 34.90625 
L 20.21875 34.90625 
L 20.21875 43.015625 
L 29.109375 43.015625 
Q 36.375 43.015625 40.234375 45.921875 
Q 44.09375 48.828125 44.09375 54.296875 
Q 44.09375 59.90625 40.109375 62.90625 
Q 36.140625 65.921875 28.71875 65.921875 
Q 24.65625 65.921875 20.015625 65.03125 
Q 15.375 64.15625 9.8125 62.3125 
L 9.8125 71.09375 
Q 15.4375 72.65625 20.34375 73.4375 
Q 25.25 74.21875 29.59375 74.21875 
Q 40.828125 74.21875 47.359375 69.109375 
Q 53.90625 64.015625 53.90625 55.328125 
Q 53.90625 49.265625 50.4375 45.09375 
Q 46.96875 40.921875 40.578125 39.3125 
z
" id="DejaVuSans-33"/>
      </defs>
      <g transform="translate(228.874173 332.798438)scale(0.1 -0.1)">
       <use xlink:href="#DejaVuSans-33"/>
      </g>
     </g>
    </g>
    <g id="xtick_5">
     <g id="line2d_5">
      <g>
       <use style="stroke:#000000;stroke-width:0.8;" x="285.162534" xlink:href="#mdb2c3584d7" y="318.2"/>
      </g>
     </g>
     <g id="text_5">
      <!-- 4 -->
      <defs>
       <path d="M 37.796875 64.3125 
L 12.890625 25.390625 
L 37.796875 25.390625 
z
M 35.203125 72.90625 
L 47.609375 72.90625 
L 47.609375 25.390625 
L 58.015625 25.390625 
L 58.015625 17.1875 
L 47.609375 17.1875 
L 47.609375 0 
L 37.796875 0 
L 37.796875 17.1875 
L 4.890625 17.1875 
L 4.890625 26.703125 
z
" id="DejaVuSans-34"/>
      </defs>
      <g transform="translate(281.981284 332.798438)scale(0.1 -0.1)">
       <use xlink:href="#DejaVuSans-34"/>
      </g>
     </g>
    </g>
    <g id="xtick_6">
     <g id="line2d_6">
      <g>
       <use style="stroke:#000000;stroke-width:0.8;" x="338.269645" xlink:href="#mdb2c3584d7" y="318.2"/>
      </g>
     </g>
     <g id="text_6">
      <!-- 5 -->
      <defs>
       <path d="M 10.796875 72.90625 
L 49.515625 72.90625 
L 49.515625 64.59375 
L 19.828125 64.59375 
L 19.828125 46.734375 
Q 21.96875 47.46875 24.109375 47.828125 
Q 26.265625 48.1875 28.421875 48.1875 
Q 40.625 48.1875 47.75 41.5 
Q 54.890625 34.8125 54.890625 23.390625 
Q 54.890625 11.625 47.5625 5.09375 
Q 40.234375 -1.421875 26.90625 -1.421875 
Q 22.3125 -1.421875 17.546875 -0.640625 
Q 12.796875 0.140625 7.71875 1.703125 
L 7.71875 11.625 
Q 12.109375 9.234375 16.796875 8.0625 
Q 21.484375 6.890625 26.703125 6.890625 
Q 35.15625 6.890625 40.078125 11.328125 
Q 45.015625 15.765625 45.015625 23.390625 
Q 45.015625 31 40.078125 35.4375 
Q 35.15625 39.890625 26.703125 39.890625 
Q 22.75 39.890625 18.8125 39.015625 
Q 14.890625 38.140625 10.796875 36.28125 
z
" id="DejaVuSans-35"/>
      </defs>
      <g transform="translate(335.088395 332.798438)scale(0.1 -0.1)">
       <use xlink:href="#DejaVuSans-35"/>
      </g>
     </g>
    </g>
    <g id="xtick_7">
     <g id="line2d_7">
      <g>
       <use style="stroke:#000000;stroke-width:0.8;" x="391.376756" xlink:href="#mdb2c3584d7" y="318.2"/>
      </g>
     </g>
     <g id="text_7">
      <!-- 6 -->
      <defs>
       <path d="M 33.015625 40.375 
Q 26.375 40.375 22.484375 35.828125 
Q 18.609375 31.296875 18.609375 23.390625 
Q 18.609375 15.53125 22.484375 10.953125 
Q 26.375 6.390625 33.015625 6.390625 
Q 39.65625 6.390625 43.53125 10.953125 
Q 47.40625 15.53125 47.40625 23.390625 
Q 47.40625 31.296875 43.53125 35.828125 
Q 39.65625 40.375 33.015625 40.375 
z
M 52.59375 71.296875 
L 52.59375 62.3125 
Q 48.875 64.0625 45.09375 64.984375 
Q 41.3125 65.921875 37.59375 65.921875 
Q 27.828125 65.921875 22.671875 59.328125 
Q 17.53125 52.734375 16.796875 39.40625 
Q 19.671875 43.65625 24.015625 45.921875 
Q 28.375 48.1875 33.59375 48.1875 
Q 44.578125 48.1875 50.953125 41.515625 
Q 57.328125 34.859375 57.328125 23.390625 
Q 57.328125 12.15625 50.6875 5.359375 
Q 44.046875 -1.421875 33.015625 -1.421875 
Q 20.359375 -1.421875 13.671875 8.265625 
Q 6.984375 17.96875 6.984375 36.375 
Q 6.984375 53.65625 15.1875 63.9375 
Q 23.390625 74.21875 37.203125 74.21875 
Q 40.921875 74.21875 44.703125 73.484375 
Q 48.484375 72.75 52.59375 71.296875 
z
" id="DejaVuSans-36"/>
      </defs>
      <g transform="translate(388.195506 332.798438)scale(0.1 -0.1)">
       <use xlink:href="#DejaVuSans-36"/>
      </g>
     </g>
    </g>
    <g id="text_8">
     <!-- Position -->
     <defs>
      <path d="M 19.671875 64.796875 
L 19.671875 37.40625 
L 32.078125 37.40625 
Q 38.96875 37.40625 42.71875 40.96875 
Q 46.484375 44.53125 46.484375 51.125 
Q 46.484375 57.671875 42.71875 61.234375 
Q 38.96875 64.796875 32.078125 64.796875 
z
M 9.8125 72.90625 
L 32.078125 72.90625 
Q 44.34375 72.90625 50.609375 67.359375 
Q 56.890625 61.8125 56.890625 51.125 
Q 56.890625 40.328125 50.609375 34.8125 
Q 44.34375 29.296875 32.078125 29.296875 
L 19.671875 29.296875 
L 19.671875 0 
L 9.8125 0 
z
" id="DejaVuSans-50"/>
      <path d="M 30.609375 48.390625 
Q 23.390625 48.390625 19.1875 42.75 
Q 14.984375 37.109375 14.984375 27.296875 
Q 14.984375 17.484375 19.15625 11.84375 
Q 23.34375 6.203125 30.609375 6.203125 
Q 37.796875 6.203125 41.984375 11.859375 
Q 46.1875 17.53125 46.1875 27.296875 
Q 46.1875 37.015625 41.984375 42.703125 
Q 37.796875 48.390625 30.609375 48.390625 
z
M 30.609375 56 
Q 42.328125 56 49.015625 48.375 
Q 55.71875 40.765625 55.71875 27.296875 
Q 55.71875 13.875 49.015625 6.21875 
Q 42.328125 -1.421875 30.609375 -1.421875 
Q 18.84375 -1.421875 12.171875 6.21875 
Q 5.515625 13.875 5.515625 27.296875 
Q 5.515625 40.765625 12.171875 48.375 
Q 18.84375 56 30.609375 56 
z
" id="DejaVuSans-6f"/>
      <path d="M 44.28125 53.078125 
L 44.28125 44.578125 
Q 40.484375 46.53125 36.375 47.5 
Q 32.28125 48.484375 27.875 48.484375 
Q 21.1875 48.484375 17.84375 46.4375 
Q 14.5 44.390625 14.5 40.28125 
Q 14.5 37.15625 16.890625 35.375 
Q 19.28125 33.59375 26.515625 31.984375 
L 29.59375 31.296875 
Q 39.15625 29.25 43.1875 25.515625 
Q 47.21875 21.78125 47.21875 15.09375 
Q 47.21875 7.46875 41.1875 3.015625 
Q 35.15625 -1.421875 24.609375 -1.421875 
Q 20.21875 -1.421875 15.453125 -0.5625 
Q 10.6875 0.296875 5.421875 2 
L 5.421875 11.28125 
Q 10.40625 8.6875 15.234375 7.390625 
Q 20.0625 6.109375 24.8125 6.109375 
Q 31.15625 6.109375 34.5625 8.28125 
Q 37.984375 10.453125 37.984375 14.40625 
Q 37.984375 18.0625 35.515625 20.015625 
Q 33.0625 21.96875 24.703125 23.78125 
L 21.578125 24.515625 
Q 13.234375 26.265625 9.515625 29.90625 
Q 5.8125 33.546875 5.8125 39.890625 
Q 5.8125 47.609375 11.28125 51.796875 
Q 16.75 56 26.8125 56 
Q 31.78125 56 36.171875 55.265625 
Q 40.578125 54.546875 44.28125 53.078125 
z
" id="DejaVuSans-73"/>
      <path d="M 9.421875 54.6875 
L 18.40625 54.6875 
L 18.40625 0 
L 9.421875 0 
z
M 9.421875 75.984375 
L 18.40625 75.984375 
L 18.40625 64.59375 
L 9.421875 64.59375 
z
" id="DejaVuSans-69"/>
      <path d="M 18.3125 70.21875 
L 18.3125 54.6875 
L 36.8125 54.6875 
L 36.8125 47.703125 
L 18.3125 47.703125 
L 18.3125 18.015625 
Q 18.3125 11.328125 20.140625 9.421875 
Q 21.96875 7.515625 27.59375 7.515625 
L 36.8125 7.515625 
L 36.8125 0 
L 27.59375 0 
Q 17.1875 0 13.234375 3.875 
Q 9.28125 7.765625 9.28125 18.015625 
L 9.28125 47.703125 
L 2.6875 47.703125 
L 2.6875 54.6875 
L 9.28125 54.6875 
L 9.28125 70.21875 
z
" id="DejaVuSans-74"/>
      <path d="M 54.890625 33.015625 
L 54.890625 0 
L 45.90625 0 
L 45.90625 32.71875 
Q 45.90625 40.484375 42.875 44.328125 
Q 39.84375 48.1875 33.796875 48.1875 
Q 26.515625 48.1875 22.3125 43.546875 
Q 18.109375 38.921875 18.109375 30.90625 
L 18.109375 0 
L 9.078125 0 
L 9.078125 54.6875 
L 18.109375 54.6875 
L 18.109375 46.1875 
Q 21.34375 51.125 25.703125 53.5625 
Q 30.078125 56 35.796875 56 
Q 45.21875 56 50.046875 50.171875 
Q 54.890625 44.34375 54.890625 33.015625 
z
" id="DejaVuSans-6e"/>
     </defs>
     <g transform="translate(219.932031 346.476562)scale(0.1 -0.1)">
      <use xlink:href="#DejaVuSans-50"/>
      <use x="60.255859" xlink:href="#DejaVuSans-6f"/>
      <use x="121.4375" xlink:href="#DejaVuSans-73"/>
      <use x="173.537109" xlink:href="#DejaVuSans-69"/>
      <use x="201.320312" xlink:href="#DejaVuSans-74"/>
      <use x="240.529297" xlink:href="#DejaVuSans-69"/>
      <use x="268.3125" xlink:href="#DejaVuSans-6f"/>
      <use x="329.494141" xlink:href="#DejaVuSans-6e"/>
     </g>
    </g>
   </g>
   <g id="matplotlib.axis_2">
    <g id="ytick_1">
     <g id="line2d_8">
      <defs>
       <path d="M 0 0 
L -3.5 0 
" id="m43728530a0" style="stroke:#000000;stroke-width:0.8;"/>
      </defs>
      <g>
       <use style="stroke:#000000;stroke-width:0.8;" x="56.05" xlink:href="#m43728530a0" y="317.951647"/>
      </g>
     </g>
     <g id="text_9">
      <!-- −0.4 -->
      <defs>
       <path d="M 10.59375 35.5 
L 73.1875 35.5 
L 73.1875 27.203125 
L 10.59375 27.203125 
z
" id="DejaVuSans-2212"/>
       <path d="M 10.6875 12.40625 
L 21 12.40625 
L 21 0 
L 10.6875 0 
z
" id="DejaVuSans-2e"/>
      </defs>
      <g transform="translate(24.767187 321.750865)scale(0.1 -0.1)">
       <use xlink:href="#DejaVuSans-2212"/>
       <use x="83.789062" xlink:href="#DejaVuSans-30"/>
       <use x="147.412109" xlink:href="#DejaVuSans-2e"/>
       <use x="179.199219" xlink:href="#DejaVuSans-34"/>
      </g>
     </g>
    </g>
    <g id="ytick_2">
     <g id="line2d_9">
      <g>
       <use style="stroke:#000000;stroke-width:0.8;" x="56.05" xlink:href="#m43728530a0" y="281.588735"/>
      </g>
     </g>
     <g id="text_10">
      <!-- −0.3 -->
      <g transform="translate(24.767187 285.387954)scale(0.1 -0.1)">
       <use xlink:href="#DejaVuSans-2212"/>
       <use x="83.789062" xlink:href="#DejaVuSans-30"/>
       <use x="147.412109" xlink:href="#DejaVuSans-2e"/>
       <use x="179.199219" xlink:href="#DejaVuSans-33"/>
      </g>
     </g>
    </g>
    <g id="ytick_3">
     <g id="line2d_10">
      <g>
       <use style="stroke:#000000;stroke-width:0.8;" x="56.05" xlink:href="#m43728530a0" y="245.225823"/>
      </g>
     </g>
     <g id="text_11">
      <!-- −0.2 -->
      <g transform="translate(24.767187 249.025042)scale(0.1 -0.1)">
       <use xlink:href="#DejaVuSans-2212"/>
       <use x="83.789062" xlink:href="#DejaVuSans-30"/>
       <use x="147.412109" xlink:href="#DejaVuSans-2e"/>
       <use x="179.199219" xlink:href="#DejaVuSans-32"/>
      </g>
     </g>
    </g>
    <g id="ytick_4">
     <g id="line2d_11">
      <g>
       <use style="stroke:#000000;stroke-width:0.8;" x="56.05" xlink:href="#m43728530a0" y="208.862912"/>
      </g>
     </g>
     <g id="text_12">
      <!-- −0.1 -->
      <g transform="translate(24.767187 212.66213)scale(0.1 -0.1)">
       <use xlink:href="#DejaVuSans-2212"/>
       <use x="83.789062" xlink:href="#DejaVuSans-30"/>
       <use x="147.412109" xlink:href="#DejaVuSans-2e"/>
       <use x="179.199219" xlink:href="#DejaVuSans-31"/>
      </g>
     </g>
    </g>
    <g id="ytick_5">
     <g id="line2d_12">
      <g>
       <use style="stroke:#000000;stroke-width:0.8;" x="56.05" xlink:href="#m43728530a0" y="172.5"/>
      </g>
     </g>
     <g id="text_13">
      <!-- 0.0 -->
      <g transform="translate(33.146875 176.299219)scale(0.1 -0.1)">
       <use xlink:href="#DejaVuSans-30"/>
       <use x="63.623047" xlink:href="#DejaVuSans-2e"/>
       <use x="95.410156" xlink:href="#DejaVuSans-30"/>
      </g>
     </g>
    </g>
    <g id="ytick_6">
     <g id="line2d_13">
      <g>
       <use style="stroke:#000000;stroke-width:0.8;" x="56.05" xlink:href="#m43728530a0" y="136.137088"/>
      </g>
     </g>
     <g id="text_14">
      <!-- 0.1 -->
      <g transform="translate(33.146875 139.936307)scale(0.1 -0.1)">
       <use xlink:href="#DejaVuSans-30"/>
       <use x="63.623047" xlink:href="#DejaVuSans-2e"/>
       <use x="95.410156" xlink:href="#DejaVuSans-31"/>
      </g>
     </g>
    </g>
    <g id="ytick_7">
     <g id="line2d_14">
      <g>
       <use style="stroke:#000000;stroke-width:0.8;" x="56.05" xlink:href="#m43728530a0" y="99.774177"/>
      </g>
     </g>
     <g id="text_15">
      <!-- 0.2 -->
      <g transform="translate(33.146875 103.573395)scale(0.1 -0.1)">
       <use xlink:href="#DejaVuSans-30"/>
       <use x="63.623047" xlink:href="#DejaVuSans-2e"/>
       <use x="95.410156" xlink:href="#DejaVuSans-32"/>
      </g>
     </g>
    </g>
    <g id="ytick_8">
     <g id="line2d_15">
      <g>
       <use style="stroke:#000000;stroke-width:0.8;" x="56.05" xlink:href="#m43728530a0" y="63.411265"/>
      </g>
     </g>
     <g id="text_16">
      <!-- 0.3 -->
      <g transform="translate(33.146875 67.210484)scale(0.1 -0.1)">
       <use xlink:href="#DejaVuSans-30"/>
       <use x="63.623047" xlink:href="#DejaVuSans-2e"/>
       <use x="95.410156" xlink:href="#DejaVuSans-33"/>
      </g>
     </g>
    </g>
    <g id="ytick_9">
     <g id="line2d_16">
      <g>
       <use style="stroke:#000000;stroke-width:0.8;" x="56.05" xlink:href="#m43728530a0" y="27.048353"/>
      </g>
     </g>
     <g id="text_17">
      <!-- 0.4 -->
      <g transform="translate(33.146875 30.847572)scale(0.1 -0.1)">
       <use xlink:href="#DejaVuSans-30"/>
       <use x="63.623047" xlink:href="#DejaVuSans-2e"/>
       <use x="95.410156" xlink:href="#DejaVuSans-34"/>
      </g>
     </g>
    </g>
    <g id="text_18">
     <!-- Amplitude -->
     <defs>
      <path d="M 34.1875 63.1875 
L 20.796875 26.90625 
L 47.609375 26.90625 
z
M 28.609375 72.90625 
L 39.796875 72.90625 
L 67.578125 0 
L 57.328125 0 
L 50.6875 18.703125 
L 17.828125 18.703125 
L 11.1875 0 
L 0.78125 0 
z
" id="DejaVuSans-41"/>
      <path d="M 52 44.1875 
Q 55.375 50.25 60.0625 53.125 
Q 64.75 56 71.09375 56 
Q 79.640625 56 84.28125 50.015625 
Q 88.921875 44.046875 88.921875 33.015625 
L 88.921875 0 
L 79.890625 0 
L 79.890625 32.71875 
Q 79.890625 40.578125 77.09375 44.375 
Q 74.3125 48.1875 68.609375 48.1875 
Q 61.625 48.1875 57.5625 43.546875 
Q 53.515625 38.921875 53.515625 30.90625 
L 53.515625 0 
L 44.484375 0 
L 44.484375 32.71875 
Q 44.484375 40.625 41.703125 44.40625 
Q 38.921875 48.1875 33.109375 48.1875 
Q 26.21875 48.1875 22.15625 43.53125 
Q 18.109375 38.875 18.109375 30.90625 
L 18.109375 0 
L 9.078125 0 
L 9.078125 54.6875 
L 18.109375 54.6875 
L 18.109375 46.1875 
Q 21.1875 51.21875 25.484375 53.609375 
Q 29.78125 56 35.6875 56 
Q 41.65625 56 45.828125 52.96875 
Q 50 49.953125 52 44.1875 
z
" id="DejaVuSans-6d"/>
      <path d="M 18.109375 8.203125 
L 18.109375 -20.796875 
L 9.078125 -20.796875 
L 9.078125 54.6875 
L 18.109375 54.6875 
L 18.109375 46.390625 
Q 20.953125 51.265625 25.265625 53.625 
Q 29.59375 56 35.59375 56 
Q 45.5625 56 51.78125 48.09375 
Q 58.015625 40.1875 58.015625 27.296875 
Q 58.015625 14.40625 51.78125 6.484375 
Q 45.5625 -1.421875 35.59375 -1.421875 
Q 29.59375 -1.421875 25.265625 0.953125 
Q 20.953125 3.328125 18.109375 8.203125 
z
M 48.6875 27.296875 
Q 48.6875 37.203125 44.609375 42.84375 
Q 40.53125 48.484375 33.40625 48.484375 
Q 26.265625 48.484375 22.1875 42.84375 
Q 18.109375 37.203125 18.109375 27.296875 
Q 18.109375 17.390625 22.1875 11.75 
Q 26.265625 6.109375 33.40625 6.109375 
Q 40.53125 6.109375 44.609375 11.75 
Q 48.6875 17.390625 48.6875 27.296875 
z
" id="DejaVuSans-70"/>
      <path d="M 9.421875 75.984375 
L 18.40625 75.984375 
L 18.40625 0 
L 9.421875 0 
z
" id="DejaVuSans-6c"/>
      <path d="M 8.5 21.578125 
L 8.5 54.6875 
L 17.484375 54.6875 
L 17.484375 21.921875 
Q 17.484375 14.15625 20.5 10.265625 
Q 23.53125 6.390625 29.59375 6.390625 
Q 36.859375 6.390625 41.078125 11.03125 
Q 45.3125 15.671875 45.3125 23.6875 
L 45.3125 54.6875 
L 54.296875 54.6875 
L 54.296875 0 
L 45.3125 0 
L 45.3125 8.40625 
Q 42.046875 3.421875 37.71875 1 
Q 33.40625 -1.421875 27.6875 -1.421875 
Q 18.265625 -1.421875 13.375 4.4375 
Q 8.5 10.296875 8.5 21.578125 
z
M 31.109375 56 
z
" id="DejaVuSans-75"/>
      <path d="M 45.40625 46.390625 
L 45.40625 75.984375 
L 54.390625 75.984375 
L 54.390625 0 
L 45.40625 0 
L 45.40625 8.203125 
Q 42.578125 3.328125 38.25 0.953125 
Q 33.9375 -1.421875 27.875 -1.421875 
Q 17.96875 -1.421875 11.734375 6.484375 
Q 5.515625 14.40625 5.515625 27.296875 
Q 5.515625 40.1875 11.734375 48.09375 
Q 17.96875 56 27.875 56 
Q 33.9375 56 38.25 53.625 
Q 42.578125 51.265625 45.40625 46.390625 
z
M 14.796875 27.296875 
Q 14.796875 17.390625 18.875 11.75 
Q 22.953125 6.109375 30.078125 6.109375 
Q 37.203125 6.109375 41.296875 11.75 
Q 45.40625 17.390625 45.40625 27.296875 
Q 45.40625 37.203125 41.296875 42.84375 
Q 37.203125 48.484375 30.078125 48.484375 
Q 22.953125 48.484375 18.875 42.84375 
Q 14.796875 37.203125 14.796875 27.296875 
z
" id="DejaVuSans-64"/>
      <path d="M 56.203125 29.59375 
L 56.203125 25.203125 
L 14.890625 25.203125 
Q 15.484375 15.921875 20.484375 11.0625 
Q 25.484375 6.203125 34.421875 6.203125 
Q 39.59375 6.203125 44.453125 7.46875 
Q 49.3125 8.734375 54.109375 11.28125 
L 54.109375 2.78125 
Q 49.265625 0.734375 44.1875 -0.34375 
Q 39.109375 -1.421875 33.890625 -1.421875 
Q 20.796875 -1.421875 13.15625 6.1875 
Q 5.515625 13.8125 5.515625 26.8125 
Q 5.515625 40.234375 12.765625 48.109375 
Q 20.015625 56 32.328125 56 
Q 43.359375 56 49.78125 48.890625 
Q 56.203125 41.796875 56.203125 29.59375 
z
M 47.21875 32.234375 
Q 47.125 39.59375 43.09375 43.984375 
Q 39.0625 48.390625 32.421875 48.390625 
Q 24.90625 48.390625 20.390625 44.140625 
Q 15.875 39.890625 15.1875 32.171875 
z
" id="DejaVuSans-65"/>
     </defs>
     <g transform="translate(18.6875 198.122656)rotate(-90)scale(0.1 -0.1)">
      <use xlink:href="#DejaVuSans-41"/>
      <use x="68.408203" xlink:href="#DejaVuSans-6d"/>
      <use x="165.820312" xlink:href="#DejaVuSans-70"/>
      <use x="229.296875" xlink:href="#DejaVuSans-6c"/>
      <use x="257.080078" xlink:href="#DejaVuSans-69"/>
      <use x="284.863281" xlink:href="#DejaVuSans-74"/>
      <use x="324.072266" xlink:href="#DejaVuSans-75"/>
      <use x="387.451172" xlink:href="#DejaVuSans-64"/>
      <use x="450.927734" xlink:href="#DejaVuSans-65"/>
     </g>
    </g>
   </g>
   <g id="line2d_17">
    <path clip-path="url(#pddb8975c3f)" d="M 72.734091 172.492725 
L 406.415909 172.492725 
L 406.415909 172.492725 
" style="fill:none;stroke:#1f77b4;stroke-linecap:square;stroke-width:1.5;"/>
   </g>
   <g id="line2d_18">
    <path clip-path="url(#pddb8975c3f)" d="M 72.734091 283.219181 
L 76.104614 278.384521 
L 79.475138 273.123501 
L 82.845661 267.457306 
L 86.216185 261.408752 
L 89.586708 255.002193 
L 94.642493 244.777896 
L 99.698278 233.89904 
L 104.754063 222.464144 
L 111.49511 206.532262 
L 119.921419 185.878298 
L 138.459298 139.998805 
L 145.200344 124.004315 
L 150.256129 112.506889 
L 155.311915 101.552769 
L 160.3677 91.241158 
L 163.738223 84.770081 
L 167.108747 78.652262 
L 170.47927 72.912334 
L 173.849793 67.573411 
L 177.220317 62.65699 
L 180.59084 58.182868 
L 183.961364 54.169061 
L 187.331887 50.63173 
L 190.70241 47.58512 
L 194.072934 45.041499 
L 197.443457 43.011108 
L 199.128719 42.19101 
L 200.813981 41.502122 
L 202.499242 40.945139 
L 204.184504 40.520619 
L 205.869766 40.228992 
L 207.555028 40.070551 
L 209.240289 40.045455 
L 210.925551 40.153729 
L 212.610813 40.395265 
L 214.296074 40.769819 
L 215.981336 41.277014 
L 217.666598 41.916339 
L 219.35186 42.687152 
L 221.037121 43.588674 
L 224.407645 45.78009 
L 227.778168 48.481762 
L 231.148691 51.682811 
L 234.519215 55.370349 
L 237.889738 59.529526 
L 241.260262 64.143596 
L 244.630785 69.193978 
L 248.001309 74.660338 
L 251.371832 80.520663 
L 254.742355 86.751357 
L 258.112879 93.32733 
L 263.168664 103.780412 
L 268.224449 114.855829 
L 273.280234 126.45328 
L 280.021281 142.54651 
L 288.44759 163.309662 
L 305.300207 205.001195 
L 312.041253 220.995685 
L 317.097039 232.493111 
L 322.152824 243.447231 
L 327.208609 253.758842 
L 330.579132 260.229919 
L 333.949656 266.347738 
L 337.320179 272.087666 
L 340.690702 277.426589 
L 344.061226 282.34301 
L 347.431749 286.817132 
L 350.802273 290.830939 
L 354.172796 294.36827 
L 357.54332 297.41488 
L 360.913843 299.958501 
L 364.284366 301.988892 
L 365.969628 302.80899 
L 367.65489 303.497878 
L 369.340152 304.054861 
L 371.025413 304.479381 
L 372.710675 304.771008 
L 374.395937 304.929449 
L 376.081198 304.954545 
L 377.76646 304.846271 
L 379.451722 304.604735 
L 381.136983 304.230181 
L 382.822245 303.722986 
L 384.507507 303.083661 
L 386.192769 302.312848 
L 387.87803 301.411326 
L 391.248554 299.21991 
L 394.619077 296.518238 
L 397.989601 293.317189 
L 401.360124 289.629651 
L 404.730647 285.470474 
L 406.415909 283.219181 
L 406.415909 283.219181 
" style="fill:none;stroke:#ff7f0e;stroke-linecap:square;stroke-width:1.5;"/>
   </g>
   <g id="line2d_19">
    <path clip-path="url(#pddb8975c3f)" d="M 72.734091 216.138609 
L 74.419353 216.73263 
L 76.104614 217.282112 
L 79.475138 218.245294 
L 82.845661 219.024276 
L 86.216185 219.61592 
L 89.586708 220.017846 
L 92.957231 220.228434 
L 96.327755 220.246836 
L 99.698278 220.072979 
L 103.068802 219.707562 
L 106.439325 219.152057 
L 109.809848 218.4087 
L 113.180372 217.480486 
L 116.550895 216.371151 
L 119.921419 215.085162 
L 123.291942 213.627698 
L 128.347727 211.133006 
L 133.403512 208.288447 
L 138.459298 205.119783 
L 143.515083 201.655709 
L 148.570868 197.927597 
L 153.626653 193.969208 
L 160.3677 188.395368 
L 168.794008 181.079325 
L 199.128719 154.314992 
L 205.869766 148.870309 
L 210.925551 145.031736 
L 215.981336 141.44192 
L 221.037121 138.13337 
L 226.092906 135.136051 
L 231.148691 132.477104 
L 234.519215 130.904483 
L 237.889738 129.499352 
L 241.260262 128.26737 
L 244.630785 127.213497 
L 248.001309 126.341977 
L 251.371832 125.656318 
L 254.742355 125.159283 
L 258.112879 124.852872 
L 261.483402 124.738319 
L 264.853926 124.816086 
L 268.224449 125.085859 
L 271.594972 125.546552 
L 274.965496 126.19631 
L 278.336019 127.032516 
L 281.706543 128.051804 
L 285.077066 129.250069 
L 288.44759 130.622487 
L 291.818113 132.16353 
L 296.873898 134.777515 
L 301.929683 137.733121 
L 306.985468 141.003581 
L 312.041253 144.559278 
L 317.097039 148.36801 
L 323.838085 153.780023 
L 330.579132 159.493246 
L 340.690702 168.425799 
L 359.228581 184.947721 
L 365.969628 190.685008 
L 372.710675 196.129691 
L 377.76646 199.968264 
L 382.822245 203.55808 
L 387.87803 206.86663 
L 392.933815 209.863949 
L 397.989601 212.522896 
L 401.360124 214.095517 
L 404.730647 215.500648 
L 406.415909 216.138609 
L 406.415909 216.138609 
" style="fill:none;stroke:#2ca02c;stroke-linecap:square;stroke-width:1.5;"/>
   </g>
   <g id="line2d_20">
    <path clip-path="url(#pddb8975c3f)" d="M 72.734091 175.116096 
L 84.530923 178.802006 
L 94.642493 181.721381 
L 103.068802 183.903741 
L 109.809848 185.445758 
L 116.550895 186.779474 
L 123.291942 187.883427 
L 130.032989 188.739855 
L 136.774036 189.334978 
L 143.515083 189.659219 
L 150.256129 189.707363 
L 156.997176 189.478633 
L 163.738223 188.976711 
L 170.47927 188.209672 
L 177.220317 187.189859 
L 183.961364 185.933681 
L 190.70241 184.46135 
L 199.128719 182.353362 
L 207.555028 179.997836 
L 217.666598 176.928125 
L 234.519215 171.51382 
L 249.68657 166.709692 
L 259.79814 163.744757 
L 268.224449 161.511471 
L 274.965496 159.921132 
L 281.706543 158.533193 
L 288.44759 157.369984 
L 295.188636 156.450223 
L 301.929683 155.788709 
L 308.67073 155.396085 
L 315.411777 155.27867 
L 322.152824 155.438353 
L 328.893871 155.872564 
L 335.634917 156.574317 
L 342.375964 157.53232 
L 349.117011 158.731158 
L 355.858058 160.151543 
L 362.599105 161.770618 
L 371.025413 164.033914 
L 381.136983 167.025218 
L 394.619077 171.30163 
L 406.415909 175.116096 
L 406.415909 175.116096 
" style="fill:none;stroke:#d62728;stroke-linecap:square;stroke-width:1.5;"/>
   </g>
   <g id="line2d_21">
    <path clip-path="url(#pddb8975c3f)" d="M 72.734091 167.846075 
L 84.530923 168.866223 
L 99.698278 170.432154 
L 124.977204 173.345184 
L 145.200344 175.571162 
L 158.682438 176.828256 
L 170.47927 177.702957 
L 180.59084 178.250504 
L 190.70241 178.590213 
L 200.813981 178.709806 
L 210.925551 178.60496 
L 221.037121 178.279465 
L 231.148691 177.745085 
L 242.945523 176.88379 
L 256.427617 175.638644 
L 271.594972 174.001879 
L 317.097039 168.929696 
L 328.893871 167.89803 
L 340.690702 167.092508 
L 350.802273 166.6124 
L 360.913843 166.345085 
L 371.025413 166.300226 
L 381.136983 166.479442 
L 391.248554 166.876257 
L 401.360124 167.476328 
L 406.415909 167.846075 
L 406.415909 167.846075 
" style="fill:none;stroke:#9467bd;stroke-linecap:square;stroke-width:1.5;"/>
   </g>
   <g id="line2d_22">
    <path clip-path="url(#pddb8975c3f)" d="M 72.734091 170.345646 
L 89.586708 170.262738 
L 106.439325 170.403237 
L 124.977204 170.798439 
L 145.200344 171.461288 
L 178.905579 172.839689 
L 207.555028 173.928343 
L 227.778168 174.466938 
L 244.630785 174.702623 
L 261.483402 174.71836 
L 278.336019 174.512576 
L 296.873898 174.0555 
L 318.7823 173.279238 
L 384.507507 170.771116 
L 403.045386 170.388699 
L 406.415909 170.345646 
L 406.415909 170.345646 
" style="fill:none;stroke:#8c564b;stroke-linecap:square;stroke-width:1.5;"/>
   </g>
   <g id="line2d_23">
    <path clip-path="url(#pddb8975c3f)" d="M 72.734091 172.265266 
L 111.49511 171.80997 
L 140.144559 171.692623 
L 168.794008 171.804598 
L 200.813981 172.159847 
L 286.762328 173.2476 
L 315.411777 173.298062 
L 344.061226 173.121848 
L 381.136983 172.645349 
L 406.415909 172.265266 
L 406.415909 172.265266 
" style="fill:none;stroke:#e377c2;stroke-linecap:square;stroke-width:1.5;"/>
   </g>
   <g id="line2d_24">
    <path clip-path="url(#pddb8975c3f)" d="M 72.734091 172.688597 
L 209.240289 172.221438 
L 261.483402 172.416144 
L 352.487534 172.787887 
L 399.674862 172.715155 
L 406.415909 172.688597 
L 406.415909 172.688597 
" style="fill:none;stroke:#7f7f7f;stroke-linecap:square;stroke-width:1.5;"/>
   </g>
   <g id="line2d_25">
    <path clip-path="url(#pddb8975c3f)" d="M 72.734091 172.604039 
L 155.311915 172.515633 
L 268.224449 172.403553 
L 406.415909 172.604039 
L 406.415909 172.604039 
" style="fill:none;stroke:#bcbd22;stroke-linecap:square;stroke-width:1.5;"/>
   </g>
   <g id="line2d_26">
    <path clip-path="url(#pddb8975c3f)" d="M 72.734091 172.516036 
L 217.666598 172.499056 
L 377.76646 172.496147 
L 406.415909 172.516036 
L 406.415909 172.516036 
" style="fill:none;stroke:#17becf;stroke-linecap:square;stroke-width:1.5;"/>
   </g>
   <g id="line2d_27">
    <path clip-path="url(#pddb8975c3f)" d="M 72.734091 172.492725 
L 406.415909 172.492725 
L 406.415909 172.492725 
" style="fill:none;stroke:#1f77b4;stroke-linecap:square;stroke-width:1.5;"/>
   </g>
   <g id="patch_3">
    <path d="M 56.05 318.2 
L 56.05 26.8 
" style="fill:none;stroke:#000000;stroke-linecap:square;stroke-linejoin:miter;stroke-width:0.8;"/>
   </g>
   <g id="patch_4">
    <path d="M 423.1 318.2 
L 423.1 26.8 
" style="fill:none;stroke:#000000;stroke-linecap:square;stroke-linejoin:miter;stroke-width:0.8;"/>
   </g>
   <g id="patch_5">
    <path d="M 56.05 318.2 
L 423.1 318.2 
" style="fill:none;stroke:#000000;stroke-linecap:square;stroke-linejoin:miter;stroke-width:0.8;"/>
   </g>
   <g id="patch_6">
    <path d="M 56.05 26.8 
L 423.1 26.8 
" style="fill:none;stroke:#000000;stroke-linecap:square;stroke-linejoin:miter;stroke-width:0.8;"/>
   </g>
   <g id="text_19">
    <!-- High Fidelity Model -->
    <defs>
     <path d="M 9.8125 72.90625 
L 19.671875 72.90625 
L 19.671875 43.015625 
L 55.515625 43.015625 
L 55.515625 72.90625 
L 65.375 72.90625 
L 65.375 0 
L 55.515625 0 
L 55.515625 34.71875 
L 19.671875 34.71875 
L 19.671875 0 
L 9.8125 0 
z
" id="DejaVuSans-48"/>
     <path d="M 45.40625 27.984375 
Q 45.40625 37.75 41.375 43.109375 
Q 37.359375 48.484375 30.078125 48.484375 
Q 22.859375 48.484375 18.828125 43.109375 
Q 14.796875 37.75 14.796875 27.984375 
Q 14.796875 18.265625 18.828125 12.890625 
Q 22.859375 7.515625 30.078125 7.515625 
Q 37.359375 7.515625 41.375 12.890625 
Q 45.40625 18.265625 45.40625 27.984375 
z
M 54.390625 6.78125 
Q 54.390625 -7.171875 48.1875 -13.984375 
Q 42 -20.796875 29.203125 -20.796875 
Q 24.46875 -20.796875 20.265625 -20.09375 
Q 16.0625 -19.390625 12.109375 -17.921875 
L 12.109375 -9.1875 
Q 16.0625 -11.328125 19.921875 -12.34375 
Q 23.78125 -13.375 27.78125 -13.375 
Q 36.625 -13.375 41.015625 -8.765625 
Q 45.40625 -4.15625 45.40625 5.171875 
L 45.40625 9.625 
Q 42.625 4.78125 38.28125 2.390625 
Q 33.9375 0 27.875 0 
Q 17.828125 0 11.671875 7.65625 
Q 5.515625 15.328125 5.515625 27.984375 
Q 5.515625 40.671875 11.671875 48.328125 
Q 17.828125 56 27.875 56 
Q 33.9375 56 38.28125 53.609375 
Q 42.625 51.21875 45.40625 46.390625 
L 45.40625 54.6875 
L 54.390625 54.6875 
z
" id="DejaVuSans-67"/>
     <path d="M 54.890625 33.015625 
L 54.890625 0 
L 45.90625 0 
L 45.90625 32.71875 
Q 45.90625 40.484375 42.875 44.328125 
Q 39.84375 48.1875 33.796875 48.1875 
Q 26.515625 48.1875 22.3125 43.546875 
Q 18.109375 38.921875 18.109375 30.90625 
L 18.109375 0 
L 9.078125 0 
L 9.078125 75.984375 
L 18.109375 75.984375 
L 18.109375 46.1875 
Q 21.34375 51.125 25.703125 53.5625 
Q 30.078125 56 35.796875 56 
Q 45.21875 56 50.046875 50.171875 
Q 54.890625 44.34375 54.890625 33.015625 
z
" id="DejaVuSans-68"/>
     <path id="DejaVuSans-20"/>
     <path d="M 9.8125 72.90625 
L 51.703125 72.90625 
L 51.703125 64.59375 
L 19.671875 64.59375 
L 19.671875 43.109375 
L 48.578125 43.109375 
L 48.578125 34.8125 
L 19.671875 34.8125 
L 19.671875 0 
L 9.8125 0 
z
" id="DejaVuSans-46"/>
     <path d="M 32.171875 -5.078125 
Q 28.375 -14.84375 24.75 -17.8125 
Q 21.140625 -20.796875 15.09375 -20.796875 
L 7.90625 -20.796875 
L 7.90625 -13.28125 
L 13.1875 -13.28125 
Q 16.890625 -13.28125 18.9375 -11.515625 
Q 21 -9.765625 23.484375 -3.21875 
L 25.09375 0.875 
L 2.984375 54.6875 
L 12.5 54.6875 
L 29.59375 11.921875 
L 46.6875 54.6875 
L 56.203125 54.6875 
z
" id="DejaVuSans-79"/>
     <path d="M 9.8125 72.90625 
L 24.515625 72.90625 
L 43.109375 23.296875 
L 61.8125 72.90625 
L 76.515625 72.90625 
L 76.515625 0 
L 66.890625 0 
L 66.890625 64.015625 
L 48.09375 14.015625 
L 38.1875 14.015625 
L 19.390625 64.015625 
L 19.390625 0 
L 9.8125 0 
z
" id="DejaVuSans-4d"/>
    </defs>
    <g transform="translate(182.105313 20.8)scale(0.12 -0.12)">
     <use xlink:href="#DejaVuSans-48"/>
     <use x="75.195312" xlink:href="#DejaVuSans-69"/>
     <use x="102.978516" xlink:href="#DejaVuSans-67"/>
     <use x="166.455078" xlink:href="#DejaVuSans-68"/>
     <use x="229.833984" xlink:href="#DejaVuSans-20"/>
     <use x="261.621094" xlink:href="#DejaVuSans-46"/>
     <use x="319.03125" xlink:href="#DejaVuSans-69"/>
     <use x="346.814453" xlink:href="#DejaVuSans-64"/>
     <use x="410.291016" xlink:href="#DejaVuSans-65"/>
     <use x="471.814453" xlink:href="#DejaVuSans-6c"/>
     <use x="499.597656" xlink:href="#DejaVuSans-69"/>
     <use x="527.380859" xlink:href="#DejaVuSans-74"/>
     <use x="566.589844" xlink:href="#DejaVuSans-79"/>
     <use x="625.769531" xlink:href="#DejaVuSans-20"/>
     <use x="657.556641" xlink:href="#DejaVuSans-4d"/>
     <use x="743.835938" xlink:href="#DejaVuSans-6f"/>
     <use x="805.017578" xlink:href="#DejaVuSans-64"/>
     <use x="868.494141" xlink:href="#DejaVuSans-65"/>
     <use x="930.017578" xlink:href="#DejaVuSans-6c"/>
    </g>
   </g>
  </g>
  <g id="axes_2">
   <g id="patch_7">
    <path d="M 482.65 318.2 
L 849.7 318.2 
L 849.7 26.8 
L 482.65 26.8 
z
" style="fill:#ffffff;"/>
   </g>
   <g id="matplotlib.axis_3">
    <g id="xtick_8">
     <g id="line2d_28">
      <g>
       <use style="stroke:#000000;stroke-width:0.8;" x="499.334091" xlink:href="#mdb2c3584d7" y="318.2"/>
      </g>
     </g>
     <g id="text_20">
      <!-- 0 -->
      <g transform="translate(496.152841 332.798438)scale(0.1 -0.1)">
       <use xlink:href="#DejaVuSans-30"/>
      </g>
     </g>
    </g>
    <g id="xtick_9">
     <g id="line2d_29">
      <g>
       <use style="stroke:#000000;stroke-width:0.8;" x="552.441202" xlink:href="#mdb2c3584d7" y="318.2"/>
      </g>
     </g>
     <g id="text_21">
      <!-- 1 -->
      <g transform="translate(549.259952 332.798438)scale(0.1 -0.1)">
       <use xlink:href="#DejaVuSans-31"/>
      </g>
     </g>
    </g>
    <g id="xtick_10">
     <g id="line2d_30">
      <g>
       <use style="stroke:#000000;stroke-width:0.8;" x="605.548312" xlink:href="#mdb2c3584d7" y="318.2"/>
      </g>
     </g>
     <g id="text_22">
      <!-- 2 -->
      <g transform="translate(602.367062 332.798438)scale(0.1 -0.1)">
       <use xlink:href="#DejaVuSans-32"/>
      </g>
     </g>
    </g>
    <g id="xtick_11">
     <g id="line2d_31">
      <g>
       <use style="stroke:#000000;stroke-width:0.8;" x="658.655423" xlink:href="#mdb2c3584d7" y="318.2"/>
      </g>
     </g>
     <g id="text_23">
      <!-- 3 -->
      <g transform="translate(655.474173 332.798438)scale(0.1 -0.1)">
       <use xlink:href="#DejaVuSans-33"/>
      </g>
     </g>
    </g>
    <g id="xtick_12">
     <g id="line2d_32">
      <g>
       <use style="stroke:#000000;stroke-width:0.8;" x="711.762534" xlink:href="#mdb2c3584d7" y="318.2"/>
      </g>
     </g>
     <g id="text_24">
      <!-- 4 -->
      <g transform="translate(708.581284 332.798438)scale(0.1 -0.1)">
       <use xlink:href="#DejaVuSans-34"/>
      </g>
     </g>
    </g>
    <g id="xtick_13">
     <g id="line2d_33">
      <g>
       <use style="stroke:#000000;stroke-width:0.8;" x="764.869645" xlink:href="#mdb2c3584d7" y="318.2"/>
      </g>
     </g>
     <g id="text_25">
      <!-- 5 -->
      <g transform="translate(761.688395 332.798438)scale(0.1 -0.1)">
       <use xlink:href="#DejaVuSans-35"/>
      </g>
     </g>
    </g>
    <g id="xtick_14">
     <g id="line2d_34">
      <g>
       <use style="stroke:#000000;stroke-width:0.8;" x="817.976756" xlink:href="#mdb2c3584d7" y="318.2"/>
      </g>
     </g>
     <g id="text_26">
      <!-- 6 -->
      <g transform="translate(814.795506 332.798438)scale(0.1 -0.1)">
       <use xlink:href="#DejaVuSans-36"/>
      </g>
     </g>
    </g>
    <g id="text_27">
     <!-- Position -->
     <g transform="translate(646.532031 346.476562)scale(0.1 -0.1)">
      <use xlink:href="#DejaVuSans-50"/>
      <use x="60.255859" xlink:href="#DejaVuSans-6f"/>
      <use x="121.4375" xlink:href="#DejaVuSans-73"/>
      <use x="173.537109" xlink:href="#DejaVuSans-69"/>
      <use x="201.320312" xlink:href="#DejaVuSans-74"/>
      <use x="240.529297" xlink:href="#DejaVuSans-69"/>
      <use x="268.3125" xlink:href="#DejaVuSans-6f"/>
      <use x="329.494141" xlink:href="#DejaVuSans-6e"/>
     </g>
    </g>
   </g>
   <g id="matplotlib.axis_4">
    <g id="ytick_10">
     <g id="line2d_35">
      <g>
       <use style="stroke:#000000;stroke-width:0.8;" x="482.65" xlink:href="#m43728530a0" y="317.951647"/>
      </g>
     </g>
     <g id="text_28">
      <!-- −0.4 -->
      <g transform="translate(451.367188 321.750865)scale(0.1 -0.1)">
       <use xlink:href="#DejaVuSans-2212"/>
       <use x="83.789062" xlink:href="#DejaVuSans-30"/>
       <use x="147.412109" xlink:href="#DejaVuSans-2e"/>
       <use x="179.199219" xlink:href="#DejaVuSans-34"/>
      </g>
     </g>
    </g>
    <g id="ytick_11">
     <g id="line2d_36">
      <g>
       <use style="stroke:#000000;stroke-width:0.8;" x="482.65" xlink:href="#m43728530a0" y="281.588735"/>
      </g>
     </g>
     <g id="text_29">
      <!-- −0.3 -->
      <g transform="translate(451.367188 285.387954)scale(0.1 -0.1)">
       <use xlink:href="#DejaVuSans-2212"/>
       <use x="83.789062" xlink:href="#DejaVuSans-30"/>
       <use x="147.412109" xlink:href="#DejaVuSans-2e"/>
       <use x="179.199219" xlink:href="#DejaVuSans-33"/>
      </g>
     </g>
    </g>
    <g id="ytick_12">
     <g id="line2d_37">
      <g>
       <use style="stroke:#000000;stroke-width:0.8;" x="482.65" xlink:href="#m43728530a0" y="245.225823"/>
      </g>
     </g>
     <g id="text_30">
      <!-- −0.2 -->
      <g transform="translate(451.367188 249.025042)scale(0.1 -0.1)">
       <use xlink:href="#DejaVuSans-2212"/>
       <use x="83.789062" xlink:href="#DejaVuSans-30"/>
       <use x="147.412109" xlink:href="#DejaVuSans-2e"/>
       <use x="179.199219" xlink:href="#DejaVuSans-32"/>
      </g>
     </g>
    </g>
    <g id="ytick_13">
     <g id="line2d_38">
      <g>
       <use style="stroke:#000000;stroke-width:0.8;" x="482.65" xlink:href="#m43728530a0" y="208.862912"/>
      </g>
     </g>
     <g id="text_31">
      <!-- −0.1 -->
      <g transform="translate(451.367188 212.66213)scale(0.1 -0.1)">
       <use xlink:href="#DejaVuSans-2212"/>
       <use x="83.789062" xlink:href="#DejaVuSans-30"/>
       <use x="147.412109" xlink:href="#DejaVuSans-2e"/>
       <use x="179.199219" xlink:href="#DejaVuSans-31"/>
      </g>
     </g>
    </g>
    <g id="ytick_14">
     <g id="line2d_39">
      <g>
       <use style="stroke:#000000;stroke-width:0.8;" x="482.65" xlink:href="#m43728530a0" y="172.5"/>
      </g>
     </g>
     <g id="text_32">
      <!-- 0.0 -->
      <g transform="translate(459.746875 176.299219)scale(0.1 -0.1)">
       <use xlink:href="#DejaVuSans-30"/>
       <use x="63.623047" xlink:href="#DejaVuSans-2e"/>
       <use x="95.410156" xlink:href="#DejaVuSans-30"/>
      </g>
     </g>
    </g>
    <g id="ytick_15">
     <g id="line2d_40">
      <g>
       <use style="stroke:#000000;stroke-width:0.8;" x="482.65" xlink:href="#m43728530a0" y="136.137088"/>
      </g>
     </g>
     <g id="text_33">
      <!-- 0.1 -->
      <g transform="translate(459.746875 139.936307)scale(0.1 -0.1)">
       <use xlink:href="#DejaVuSans-30"/>
       <use x="63.623047" xlink:href="#DejaVuSans-2e"/>
       <use x="95.410156" xlink:href="#DejaVuSans-31"/>
      </g>
     </g>
    </g>
    <g id="ytick_16">
     <g id="line2d_41">
      <g>
       <use style="stroke:#000000;stroke-width:0.8;" x="482.65" xlink:href="#m43728530a0" y="99.774177"/>
      </g>
     </g>
     <g id="text_34">
      <!-- 0.2 -->
      <g transform="translate(459.746875 103.573395)scale(0.1 -0.1)">
       <use xlink:href="#DejaVuSans-30"/>
       <use x="63.623047" xlink:href="#DejaVuSans-2e"/>
       <use x="95.410156" xlink:href="#DejaVuSans-32"/>
      </g>
     </g>
    </g>
    <g id="ytick_17">
     <g id="line2d_42">
      <g>
       <use style="stroke:#000000;stroke-width:0.8;" x="482.65" xlink:href="#m43728530a0" y="63.411265"/>
      </g>
     </g>
     <g id="text_35">
      <!-- 0.3 -->
      <g transform="translate(459.746875 67.210484)scale(0.1 -0.1)">
       <use xlink:href="#DejaVuSans-30"/>
       <use x="63.623047" xlink:href="#DejaVuSans-2e"/>
       <use x="95.410156" xlink:href="#DejaVuSans-33"/>
      </g>
     </g>
    </g>
    <g id="ytick_18">
     <g id="line2d_43">
      <g>
       <use style="stroke:#000000;stroke-width:0.8;" x="482.65" xlink:href="#m43728530a0" y="27.048353"/>
      </g>
     </g>
     <g id="text_36">
      <!-- 0.4 -->
      <g transform="translate(459.746875 30.847572)scale(0.1 -0.1)">
       <use xlink:href="#DejaVuSans-30"/>
       <use x="63.623047" xlink:href="#DejaVuSans-2e"/>
       <use x="95.410156" xlink:href="#DejaVuSans-34"/>
      </g>
     </g>
    </g>
    <g id="text_37">
     <!-- Amplitude -->
     <g transform="translate(445.2875 198.122656)rotate(-90)scale(0.1 -0.1)">
      <use xlink:href="#DejaVuSans-41"/>
      <use x="68.408203" xlink:href="#DejaVuSans-6d"/>
      <use x="165.820312" xlink:href="#DejaVuSans-70"/>
      <use x="229.296875" xlink:href="#DejaVuSans-6c"/>
      <use x="257.080078" xlink:href="#DejaVuSans-69"/>
      <use x="284.863281" xlink:href="#DejaVuSans-74"/>
      <use x="324.072266" xlink:href="#DejaVuSans-75"/>
      <use x="387.451172" xlink:href="#DejaVuSans-64"/>
      <use x="450.927734" xlink:href="#DejaVuSans-65"/>
     </g>
    </g>
   </g>
   <g id="line2d_44">
    <path clip-path="url(#p6c258497f0)" d="M 499.334091 172.492725 
L 833.015909 172.492725 
L 833.015909 172.492725 
" style="fill:none;stroke:#1f77b4;stroke-linecap:square;stroke-width:1.5;"/>
   </g>
   <g id="line2d_45">
    <path clip-path="url(#p6c258497f0)" d="M 499.334091 283.219181 
L 502.704614 278.384521 
L 506.075138 273.123501 
L 509.445661 267.457306 
L 512.816185 261.408752 
L 516.186708 255.002193 
L 521.242493 244.777896 
L 526.298278 233.89904 
L 531.354063 222.464144 
L 538.09511 206.532262 
L 546.521419 185.878298 
L 565.059298 139.998805 
L 571.800344 124.004315 
L 576.856129 112.506889 
L 581.911915 101.552769 
L 586.9677 91.241158 
L 590.338223 84.770081 
L 593.708747 78.652262 
L 597.07927 72.912334 
L 600.449793 67.573411 
L 603.820317 62.65699 
L 607.19084 58.182868 
L 610.561364 54.169061 
L 613.931887 50.63173 
L 617.30241 47.58512 
L 620.672934 45.041499 
L 624.043457 43.011108 
L 625.728719 42.19101 
L 627.413981 41.502122 
L 629.099242 40.945139 
L 630.784504 40.520619 
L 632.469766 40.228992 
L 634.155028 40.070551 
L 635.840289 40.045455 
L 637.525551 40.153729 
L 639.210813 40.395265 
L 640.896074 40.769819 
L 642.581336 41.277014 
L 644.266598 41.916339 
L 645.95186 42.687152 
L 647.637121 43.588674 
L 651.007645 45.78009 
L 654.378168 48.481762 
L 657.748691 51.682811 
L 661.119215 55.370349 
L 664.489738 59.529526 
L 667.860262 64.143596 
L 671.230785 69.193978 
L 674.601309 74.660338 
L 677.971832 80.520663 
L 681.342355 86.751357 
L 684.712879 93.32733 
L 689.768664 103.780412 
L 694.824449 114.855829 
L 699.880234 126.45328 
L 706.621281 142.54651 
L 715.04759 163.309662 
L 731.900207 205.001195 
L 738.641253 220.995685 
L 743.697039 232.493111 
L 748.752824 243.447231 
L 753.808609 253.758842 
L 757.179132 260.229919 
L 760.549656 266.347738 
L 763.920179 272.087666 
L 767.290702 277.426589 
L 770.661226 282.34301 
L 774.031749 286.817132 
L 777.402273 290.830939 
L 780.772796 294.36827 
L 784.14332 297.41488 
L 787.513843 299.958501 
L 790.884366 301.988892 
L 792.569628 302.80899 
L 794.25489 303.497878 
L 795.940152 304.054861 
L 797.625413 304.479381 
L 799.310675 304.771008 
L 800.995937 304.929449 
L 802.681198 304.954545 
L 804.36646 304.846271 
L 806.051722 304.604735 
L 807.736983 304.230181 
L 809.422245 303.722986 
L 811.107507 303.083661 
L 812.792769 302.312848 
L 814.47803 301.411326 
L 817.848554 299.21991 
L 821.219077 296.518238 
L 824.589601 293.317189 
L 827.960124 289.629651 
L 831.330647 285.470474 
L 833.015909 283.219181 
L 833.015909 283.219181 
" style="fill:none;stroke:#ff7f0e;stroke-linecap:square;stroke-width:1.5;"/>
   </g>
   <g id="line2d_46">
    <path clip-path="url(#p6c258497f0)" d="M 499.334091 216.138609 
L 501.019353 216.73263 
L 502.704614 217.282112 
L 506.075138 218.245294 
L 509.445661 219.024276 
L 512.816185 219.61592 
L 516.186708 220.017846 
L 519.557231 220.228434 
L 522.927755 220.246836 
L 526.298278 220.072979 
L 529.668802 219.707562 
L 533.039325 219.152057 
L 536.409848 218.4087 
L 539.780372 217.480486 
L 543.150895 216.371151 
L 546.521419 215.085162 
L 549.891942 213.627698 
L 554.947727 211.133006 
L 560.003512 208.288447 
L 565.059298 205.119783 
L 570.115083 201.655709 
L 575.170868 197.927597 
L 580.226653 193.969208 
L 586.9677 188.395368 
L 595.394008 181.079325 
L 625.728719 154.314992 
L 632.469766 148.870309 
L 637.525551 145.031736 
L 642.581336 141.44192 
L 647.637121 138.13337 
L 652.692906 135.136051 
L 657.748691 132.477104 
L 661.119215 130.904483 
L 664.489738 129.499352 
L 667.860262 128.26737 
L 671.230785 127.213497 
L 674.601309 126.341977 
L 677.971832 125.656318 
L 681.342355 125.159283 
L 684.712879 124.852872 
L 688.083402 124.738319 
L 691.453926 124.816086 
L 694.824449 125.085859 
L 698.194972 125.546552 
L 701.565496 126.19631 
L 704.936019 127.032516 
L 708.306543 128.051804 
L 711.677066 129.250069 
L 715.04759 130.622487 
L 718.418113 132.16353 
L 723.473898 134.777515 
L 728.529683 137.733121 
L 733.585468 141.003581 
L 738.641253 144.559278 
L 743.697039 148.36801 
L 750.438085 153.780023 
L 757.179132 159.493246 
L 767.290702 168.425799 
L 785.828581 184.947721 
L 792.569628 190.685008 
L 799.310675 196.129691 
L 804.36646 199.968264 
L 809.422245 203.55808 
L 814.47803 206.86663 
L 819.533815 209.863949 
L 824.589601 212.522896 
L 827.960124 214.095517 
L 831.330647 215.500648 
L 833.015909 216.138609 
L 833.015909 216.138609 
" style="fill:none;stroke:#2ca02c;stroke-linecap:square;stroke-width:1.5;"/>
   </g>
   <g id="line2d_47">
    <path clip-path="url(#p6c258497f0)" d="M 499.334091 175.116096 
L 511.130923 178.802006 
L 521.242493 181.721381 
L 529.668802 183.903741 
L 536.409848 185.445758 
L 543.150895 186.779474 
L 549.891942 187.883427 
L 556.632989 188.739855 
L 563.374036 189.334978 
L 570.115083 189.659219 
L 576.856129 189.707363 
L 583.597176 189.478633 
L 590.338223 188.976711 
L 597.07927 188.209672 
L 603.820317 187.189859 
L 610.561364 185.933681 
L 617.30241 184.46135 
L 625.728719 182.353362 
L 634.155028 179.997836 
L 644.266598 176.928125 
L 661.119215 171.51382 
L 676.28657 166.709692 
L 686.39814 163.744757 
L 694.824449 161.511471 
L 701.565496 159.921132 
L 708.306543 158.533193 
L 715.04759 157.369984 
L 721.788636 156.450223 
L 728.529683 155.788709 
L 735.27073 155.396085 
L 742.011777 155.27867 
L 748.752824 155.438353 
L 755.493871 155.872564 
L 762.234917 156.574317 
L 768.975964 157.53232 
L 775.717011 158.731158 
L 782.458058 160.151543 
L 789.199105 161.770618 
L 797.625413 164.033914 
L 807.736983 167.025218 
L 821.219077 171.30163 
L 833.015909 175.116096 
L 833.015909 175.116096 
" style="fill:none;stroke:#d62728;stroke-linecap:square;stroke-width:1.5;"/>
   </g>
   <g id="line2d_48">
    <path clip-path="url(#p6c258497f0)" d="M 499.334091 167.846075 
L 511.130923 168.866223 
L 526.298278 170.432154 
L 551.577204 173.345184 
L 571.800344 175.571162 
L 585.282438 176.828256 
L 597.07927 177.702957 
L 607.19084 178.250504 
L 617.30241 178.590213 
L 627.413981 178.709806 
L 637.525551 178.60496 
L 647.637121 178.279465 
L 657.748691 177.745085 
L 669.545523 176.88379 
L 683.027617 175.638644 
L 698.194972 174.001879 
L 743.697039 168.929696 
L 755.493871 167.89803 
L 767.290702 167.092508 
L 777.402273 166.6124 
L 787.513843 166.345085 
L 797.625413 166.300226 
L 807.736983 166.479442 
L 817.848554 166.876257 
L 827.960124 167.476328 
L 833.015909 167.846075 
L 833.015909 167.846075 
" style="fill:none;stroke:#9467bd;stroke-linecap:square;stroke-width:1.5;"/>
   </g>
   <g id="line2d_49">
    <path clip-path="url(#p6c258497f0)" d="M 499.334091 170.345646 
L 516.186708 170.262738 
L 533.039325 170.403237 
L 551.577204 170.798439 
L 571.800344 171.461288 
L 605.505579 172.839689 
L 634.155028 173.928343 
L 654.378168 174.466938 
L 671.230785 174.702623 
L 688.083402 174.71836 
L 704.936019 174.512576 
L 723.473898 174.0555 
L 745.3823 173.279238 
L 811.107507 170.771116 
L 829.645386 170.388699 
L 833.015909 170.345646 
L 833.015909 170.345646 
" style="fill:none;stroke:#8c564b;stroke-linecap:square;stroke-width:1.5;"/>
   </g>
   <g id="line2d_50">
    <path clip-path="url(#p6c258497f0)" d="M 499.334091 172.265266 
L 538.09511 171.80997 
L 566.744559 171.692623 
L 595.394008 171.804598 
L 627.413981 172.159847 
L 713.362328 173.2476 
L 742.011777 173.298062 
L 770.661226 173.121848 
L 807.736983 172.645349 
L 833.015909 172.265266 
L 833.015909 172.265266 
" style="fill:none;stroke:#e377c2;stroke-linecap:square;stroke-width:1.5;"/>
   </g>
   <g id="line2d_51">
    <path clip-path="url(#p6c258497f0)" d="M 499.334091 172.688597 
L 635.840289 172.221438 
L 688.083402 172.416144 
L 779.087534 172.787887 
L 826.274862 172.715155 
L 833.015909 172.688597 
L 833.015909 172.688597 
" style="fill:none;stroke:#7f7f7f;stroke-linecap:square;stroke-width:1.5;"/>
   </g>
   <g id="line2d_52">
    <path clip-path="url(#p6c258497f0)" d="M 499.334091 172.604039 
L 581.911915 172.515633 
L 694.824449 172.403553 
L 833.015909 172.604039 
L 833.015909 172.604039 
" style="fill:none;stroke:#bcbd22;stroke-linecap:square;stroke-width:1.5;"/>
   </g>
   <g id="line2d_53">
    <path clip-path="url(#p6c258497f0)" d="M 499.334091 172.516036 
L 644.266598 172.499056 
L 804.36646 172.496147 
L 833.015909 172.516036 
L 833.015909 172.516036 
" style="fill:none;stroke:#17becf;stroke-linecap:square;stroke-width:1.5;"/>
   </g>
   <g id="line2d_54">
    <path clip-path="url(#p6c258497f0)" d="M 499.334091 172.492725 
L 833.015909 172.492725 
L 833.015909 172.492725 
" style="fill:none;stroke:#1f77b4;stroke-linecap:square;stroke-width:1.5;"/>
   </g>
   <g id="patch_8">
    <path d="M 482.65 318.2 
L 482.65 26.8 
" style="fill:none;stroke:#000000;stroke-linecap:square;stroke-linejoin:miter;stroke-width:0.8;"/>
   </g>
   <g id="patch_9">
    <path d="M 849.7 318.2 
L 849.7 26.8 
" style="fill:none;stroke:#000000;stroke-linecap:square;stroke-linejoin:miter;stroke-width:0.8;"/>
   </g>
   <g id="patch_10">
    <path d="M 482.65 318.2 
L 849.7 318.2 
" style="fill:none;stroke:#000000;stroke-linecap:square;stroke-linejoin:miter;stroke-width:0.8;"/>
   </g>
   <g id="patch_11">
    <path d="M 482.65 26.8 
L 849.7 26.8 
" style="fill:none;stroke:#000000;stroke-linecap:square;stroke-linejoin:miter;stroke-width:0.8;"/>
   </g>
   <g id="text_38">
    <!-- Data Driven Reduced Order Model -->
    <defs>
     <path d="M 19.671875 64.796875 
L 19.671875 8.109375 
L 31.59375 8.109375 
Q 46.6875 8.109375 53.6875 14.9375 
Q 60.6875 21.78125 60.6875 36.53125 
Q 60.6875 51.171875 53.6875 57.984375 
Q 46.6875 64.796875 31.59375 64.796875 
z
M 9.8125 72.90625 
L 30.078125 72.90625 
Q 51.265625 72.90625 61.171875 64.09375 
Q 71.09375 55.28125 71.09375 36.53125 
Q 71.09375 17.671875 61.125 8.828125 
Q 51.171875 0 30.078125 0 
L 9.8125 0 
z
" id="DejaVuSans-44"/>
     <path d="M 34.28125 27.484375 
Q 23.390625 27.484375 19.1875 25 
Q 14.984375 22.515625 14.984375 16.5 
Q 14.984375 11.71875 18.140625 8.90625 
Q 21.296875 6.109375 26.703125 6.109375 
Q 34.1875 6.109375 38.703125 11.40625 
Q 43.21875 16.703125 43.21875 25.484375 
L 43.21875 27.484375 
z
M 52.203125 31.203125 
L 52.203125 0 
L 43.21875 0 
L 43.21875 8.296875 
Q 40.140625 3.328125 35.546875 0.953125 
Q 30.953125 -1.421875 24.3125 -1.421875 
Q 15.921875 -1.421875 10.953125 3.296875 
Q 6 8.015625 6 15.921875 
Q 6 25.140625 12.171875 29.828125 
Q 18.359375 34.515625 30.609375 34.515625 
L 43.21875 34.515625 
L 43.21875 35.40625 
Q 43.21875 41.609375 39.140625 45 
Q 35.0625 48.390625 27.6875 48.390625 
Q 23 48.390625 18.546875 47.265625 
Q 14.109375 46.140625 10.015625 43.890625 
L 10.015625 52.203125 
Q 14.9375 54.109375 19.578125 55.046875 
Q 24.21875 56 28.609375 56 
Q 40.484375 56 46.34375 49.84375 
Q 52.203125 43.703125 52.203125 31.203125 
z
" id="DejaVuSans-61"/>
     <path d="M 41.109375 46.296875 
Q 39.59375 47.171875 37.8125 47.578125 
Q 36.03125 48 33.890625 48 
Q 26.265625 48 22.1875 43.046875 
Q 18.109375 38.09375 18.109375 28.8125 
L 18.109375 0 
L 9.078125 0 
L 9.078125 54.6875 
L 18.109375 54.6875 
L 18.109375 46.1875 
Q 20.953125 51.171875 25.484375 53.578125 
Q 30.03125 56 36.53125 56 
Q 37.453125 56 38.578125 55.875 
Q 39.703125 55.765625 41.0625 55.515625 
z
" id="DejaVuSans-72"/>
     <path d="M 2.984375 54.6875 
L 12.5 54.6875 
L 29.59375 8.796875 
L 46.6875 54.6875 
L 56.203125 54.6875 
L 35.6875 0 
L 23.484375 0 
z
" id="DejaVuSans-76"/>
     <path d="M 44.390625 34.1875 
Q 47.5625 33.109375 50.5625 29.59375 
Q 53.5625 26.078125 56.59375 19.921875 
L 66.609375 0 
L 56 0 
L 46.6875 18.703125 
Q 43.0625 26.03125 39.671875 28.421875 
Q 36.28125 30.8125 30.421875 30.8125 
L 19.671875 30.8125 
L 19.671875 0 
L 9.8125 0 
L 9.8125 72.90625 
L 32.078125 72.90625 
Q 44.578125 72.90625 50.734375 67.671875 
Q 56.890625 62.453125 56.890625 51.90625 
Q 56.890625 45.015625 53.6875 40.46875 
Q 50.484375 35.9375 44.390625 34.1875 
z
M 19.671875 64.796875 
L 19.671875 38.921875 
L 32.078125 38.921875 
Q 39.203125 38.921875 42.84375 42.21875 
Q 46.484375 45.515625 46.484375 51.90625 
Q 46.484375 58.296875 42.84375 61.546875 
Q 39.203125 64.796875 32.078125 64.796875 
z
" id="DejaVuSans-52"/>
     <path d="M 48.78125 52.59375 
L 48.78125 44.1875 
Q 44.96875 46.296875 41.140625 47.34375 
Q 37.3125 48.390625 33.40625 48.390625 
Q 24.65625 48.390625 19.8125 42.84375 
Q 14.984375 37.3125 14.984375 27.296875 
Q 14.984375 17.28125 19.8125 11.734375 
Q 24.65625 6.203125 33.40625 6.203125 
Q 37.3125 6.203125 41.140625 7.25 
Q 44.96875 8.296875 48.78125 10.40625 
L 48.78125 2.09375 
Q 45.015625 0.34375 40.984375 -0.53125 
Q 36.96875 -1.421875 32.421875 -1.421875 
Q 20.0625 -1.421875 12.78125 6.34375 
Q 5.515625 14.109375 5.515625 27.296875 
Q 5.515625 40.671875 12.859375 48.328125 
Q 20.21875 56 33.015625 56 
Q 37.15625 56 41.109375 55.140625 
Q 45.0625 54.296875 48.78125 52.59375 
z
" id="DejaVuSans-63"/>
     <path d="M 39.40625 66.21875 
Q 28.65625 66.21875 22.328125 58.203125 
Q 16.015625 50.203125 16.015625 36.375 
Q 16.015625 22.609375 22.328125 14.59375 
Q 28.65625 6.59375 39.40625 6.59375 
Q 50.140625 6.59375 56.421875 14.59375 
Q 62.703125 22.609375 62.703125 36.375 
Q 62.703125 50.203125 56.421875 58.203125 
Q 50.140625 66.21875 39.40625 66.21875 
z
M 39.40625 74.21875 
Q 54.734375 74.21875 63.90625 63.9375 
Q 73.09375 53.65625 73.09375 36.375 
Q 73.09375 19.140625 63.90625 8.859375 
Q 54.734375 -1.421875 39.40625 -1.421875 
Q 24.03125 -1.421875 14.8125 8.828125 
Q 5.609375 19.09375 5.609375 36.375 
Q 5.609375 53.65625 14.8125 63.9375 
Q 24.03125 74.21875 39.40625 74.21875 
z
" id="DejaVuSans-4f"/>
    </defs>
    <g transform="translate(562.981563 20.8)scale(0.12 -0.12)">
     <use xlink:href="#DejaVuSans-44"/>
     <use x="77.001953" xlink:href="#DejaVuSans-61"/>
     <use x="138.28125" xlink:href="#DejaVuSans-74"/>
     <use x="177.490234" xlink:href="#DejaVuSans-61"/>
     <use x="238.769531" xlink:href="#DejaVuSans-20"/>
     <use x="270.556641" xlink:href="#DejaVuSans-44"/>
     <use x="347.558594" xlink:href="#DejaVuSans-72"/>
     <use x="388.671875" xlink:href="#DejaVuSans-69"/>
     <use x="416.455078" xlink:href="#DejaVuSans-76"/>
     <use x="475.634766" xlink:href="#DejaVuSans-65"/>
     <use x="537.158203" xlink:href="#DejaVuSans-6e"/>
     <use x="600.537109" xlink:href="#DejaVuSans-20"/>
     <use x="632.324219" xlink:href="#DejaVuSans-52"/>
     <use x="701.744141" xlink:href="#DejaVuSans-65"/>
     <use x="763.267578" xlink:href="#DejaVuSans-64"/>
     <use x="826.744141" xlink:href="#DejaVuSans-75"/>
     <use x="890.123047" xlink:href="#DejaVuSans-63"/>
     <use x="945.103516" xlink:href="#DejaVuSans-65"/>
     <use x="1006.626953" xlink:href="#DejaVuSans-64"/>
     <use x="1070.103516" xlink:href="#DejaVuSans-20"/>
     <use x="1101.890625" xlink:href="#DejaVuSans-4f"/>
     <use x="1180.601562" xlink:href="#DejaVuSans-72"/>
     <use x="1221.699219" xlink:href="#DejaVuSans-64"/>
     <use x="1285.175781" xlink:href="#DejaVuSans-65"/>
     <use x="1346.699219" xlink:href="#DejaVuSans-72"/>
     <use x="1387.8125" xlink:href="#DejaVuSans-20"/>
     <use x="1419.599609" xlink:href="#DejaVuSans-4d"/>
     <use x="1505.878906" xlink:href="#DejaVuSans-6f"/>
     <use x="1567.060547" xlink:href="#DejaVuSans-64"/>
     <use x="1630.537109" xlink:href="#DejaVuSans-65"/>
     <use x="1692.060547" xlink:href="#DejaVuSans-6c"/>
    </g>
   </g>
  </g>
 </g>
 <defs>
  <clipPath id="pddb8975c3f">
   <rect height="291.4" width="367.05" x="56.05" y="26.8"/>
  </clipPath>
  <clipPath id="p6c258497f0">
   <rect height="291.4" width="367.05" x="482.65" y="26.8"/>
  </clipPath>
 </defs>
</svg>
