<?xml version="1.0" encoding="utf-8" standalone="no"?>
<!DOCTYPE svg PUBLIC "-//W3C//DTD SVG 1.1//EN"
  "http://www.w3.org/Graphics/SVG/1.1/DTD/svg11.dtd">
<!-- Created with matplotlib (http://matplotlib.org/) -->
<svg height="504pt" version="1.1" viewBox="0 0 1080 504" width="1080pt" xmlns="http://www.w3.org/2000/svg" xmlns:xlink="http://www.w3.org/1999/xlink">
 <defs>
  <style type="text/css">
*{stroke-linecap:butt;stroke-linejoin:round;}
  </style>
 </defs>
 <g id="figure_1">
  <g id="patch_1">
   <path d="M 0 504 
L 1080 504 
L 1080 0 
L 0 0 
z
" style="fill:#ffffff;"/>
  </g>
  <g id="axes_1">
   <g id="patch_2">
    <path d="M 116.48 422.1475 
L 524.52 422.1475 
L 524.52 52.20375 
L 116.48 52.20375 
z
" style="fill:#ffffff;"/>
   </g>
   <g id="matplotlib.axis_1">
    <g id="xtick_1">
     <g id="line2d_1">
      <defs>
       <path d="M 0 0 
L 0 3.5 
" id="me59b776d14" style="stroke:#000000;stroke-width:0.8;"/>
      </defs>
      <g>
       <use style="stroke:#000000;stroke-width:0.8;" x="135.027273" xlink:href="#me59b776d14" y="422.1475"/>
      </g>
     </g>
     <g id="text_1">
      <!-- 0 -->
      <defs>
       <path d="M 31.78125 66.40625 
Q 24.171875 66.40625 20.328125 58.90625 
Q 16.5 51.421875 16.5 36.375 
Q 16.5 21.390625 20.328125 13.890625 
Q 24.171875 6.390625 31.78125 6.390625 
Q 39.453125 6.390625 43.28125 13.890625 
Q 47.125 21.390625 47.125 36.375 
Q 47.125 51.421875 43.28125 58.90625 
Q 39.453125 66.40625 31.78125 66.40625 
z
M 31.78125 74.21875 
Q 44.046875 74.21875 50.515625 64.515625 
Q 56.984375 54.828125 56.984375 36.375 
Q 56.984375 17.96875 50.515625 8.265625 
Q 44.046875 -1.421875 31.78125 -1.421875 
Q 19.53125 -1.421875 13.0625 8.265625 
Q 6.59375 17.96875 6.59375 36.375 
Q 6.59375 54.828125 13.0625 64.515625 
Q 19.53125 74.21875 31.78125 74.21875 
z
" id="DejaVuSans-30"/>
      </defs>
      <g transform="translate(127.392273 447.38375)scale(0.24 -0.24)">
       <use xlink:href="#DejaVuSans-30"/>
      </g>
     </g>
    </g>
    <g id="xtick_2">
     <g id="line2d_2">
      <g>
       <use style="stroke:#000000;stroke-width:0.8;" x="253.102878" xlink:href="#me59b776d14" y="422.1475"/>
      </g>
     </g>
     <g id="text_2">
      <!-- 2 -->
      <defs>
       <path d="M 19.1875 8.296875 
L 53.609375 8.296875 
L 53.609375 0 
L 7.328125 0 
L 7.328125 8.296875 
Q 12.9375 14.109375 22.625 23.890625 
Q 32.328125 33.6875 34.8125 36.53125 
Q 39.546875 41.84375 41.421875 45.53125 
Q 43.3125 49.21875 43.3125 52.78125 
Q 43.3125 58.59375 39.234375 62.25 
Q 35.15625 65.921875 28.609375 65.921875 
Q 23.96875 65.921875 18.8125 64.3125 
Q 13.671875 62.703125 7.8125 59.421875 
L 7.8125 69.390625 
Q 13.765625 71.78125 18.9375 73 
Q 24.125 74.21875 28.421875 74.21875 
Q 39.75 74.21875 46.484375 68.546875 
Q 53.21875 62.890625 53.21875 53.421875 
Q 53.21875 48.921875 51.53125 44.890625 
Q 49.859375 40.875 45.40625 35.40625 
Q 44.1875 33.984375 37.640625 27.21875 
Q 31.109375 20.453125 19.1875 8.296875 
z
" id="DejaVuSans-32"/>
      </defs>
      <g transform="translate(245.467878 447.38375)scale(0.24 -0.24)">
       <use xlink:href="#DejaVuSans-32"/>
      </g>
     </g>
    </g>
    <g id="xtick_3">
     <g id="line2d_3">
      <g>
       <use style="stroke:#000000;stroke-width:0.8;" x="371.178484" xlink:href="#me59b776d14" y="422.1475"/>
      </g>
     </g>
     <g id="text_3">
      <!-- 4 -->
      <defs>
       <path d="M 37.796875 64.3125 
L 12.890625 25.390625 
L 37.796875 25.390625 
z
M 35.203125 72.90625 
L 47.609375 72.90625 
L 47.609375 25.390625 
L 58.015625 25.390625 
L 58.015625 17.1875 
L 47.609375 17.1875 
L 47.609375 0 
L 37.796875 0 
L 37.796875 17.1875 
L 4.890625 17.1875 
L 4.890625 26.703125 
z
" id="DejaVuSans-34"/>
      </defs>
      <g transform="translate(363.543484 447.38375)scale(0.24 -0.24)">
       <use xlink:href="#DejaVuSans-34"/>
      </g>
     </g>
    </g>
    <g id="xtick_4">
     <g id="line2d_4">
      <g>
       <use style="stroke:#000000;stroke-width:0.8;" x="489.254089" xlink:href="#me59b776d14" y="422.1475"/>
      </g>
     </g>
     <g id="text_4">
      <!-- 6 -->
      <defs>
       <path d="M 33.015625 40.375 
Q 26.375 40.375 22.484375 35.828125 
Q 18.609375 31.296875 18.609375 23.390625 
Q 18.609375 15.53125 22.484375 10.953125 
Q 26.375 6.390625 33.015625 6.390625 
Q 39.65625 6.390625 43.53125 10.953125 
Q 47.40625 15.53125 47.40625 23.390625 
Q 47.40625 31.296875 43.53125 35.828125 
Q 39.65625 40.375 33.015625 40.375 
z
M 52.59375 71.296875 
L 52.59375 62.3125 
Q 48.875 64.0625 45.09375 64.984375 
Q 41.3125 65.921875 37.59375 65.921875 
Q 27.828125 65.921875 22.671875 59.328125 
Q 17.53125 52.734375 16.796875 39.40625 
Q 19.671875 43.65625 24.015625 45.921875 
Q 28.375 48.1875 33.59375 48.1875 
Q 44.578125 48.1875 50.953125 41.515625 
Q 57.328125 34.859375 57.328125 23.390625 
Q 57.328125 12.15625 50.6875 5.359375 
Q 44.046875 -1.421875 33.015625 -1.421875 
Q 20.359375 -1.421875 13.671875 8.265625 
Q 6.984375 17.96875 6.984375 36.375 
Q 6.984375 53.65625 15.1875 63.9375 
Q 23.390625 74.21875 37.203125 74.21875 
Q 40.921875 74.21875 44.703125 73.484375 
Q 48.484375 72.75 52.59375 71.296875 
z
" id="DejaVuSans-36"/>
      </defs>
      <g transform="translate(481.619089 447.38375)scale(0.24 -0.24)">
       <use xlink:href="#DejaVuSans-36"/>
      </g>
     </g>
    </g>
    <g id="text_5">
     <!-- Position -->
     <defs>
      <path d="M 3.515625 0 
L 3.515625 3.078125 
L 5.90625 3.078125 
Q 11.328125 3.078125 12.5625 3.984375 
Q 13.8125 4.890625 13.8125 7.8125 
L 13.8125 60.5 
Q 13.8125 63.375 12.546875 64.28125 
Q 11.28125 65.1875 5.90625 65.1875 
L 3.515625 65.1875 
L 3.515625 68.3125 
L 38.8125 68.3125 
Q 48.921875 68.3125 55.65625 62.734375 
Q 62.40625 57.171875 62.40625 49.703125 
Q 62.40625 42.28125 55.546875 36.9375 
Q 48.6875 31.59375 39.59375 31.59375 
L 22.703125 31.59375 
L 22.703125 7.8125 
Q 22.703125 4.9375 23.953125 4 
Q 25.203125 3.078125 30.609375 3.078125 
L 33.015625 3.078125 
L 33.015625 0 
Q 29.5 0.296875 18.21875 0.296875 
Q 7.03125 0.296875 3.515625 0 
z
M 22.40625 34.1875 
L 36.1875 34.1875 
Q 40.671875 34.1875 43.9375 35.453125 
Q 47.21875 36.71875 48.703125 38.25 
Q 50.203125 39.796875 51.046875 42.3125 
Q 51.90625 44.828125 52 46.21875 
Q 52.09375 47.609375 52.09375 49.703125 
Q 52.09375 51.90625 52 53.296875 
Q 51.90625 54.6875 51.046875 57.203125 
Q 50.203125 59.71875 48.703125 61.25 
Q 47.21875 62.796875 43.96875 63.984375 
Q 40.71875 65.1875 36.1875 65.1875 
L 27.296875 65.1875 
Q 23.875 65.1875 23.140625 64.5 
Q 22.40625 63.8125 22.40625 61.1875 
z
" id="CMUSerif-Roman-50"/>
      <path d="M 16.015625 -1.125 
Q 2.78125 11.921875 2.78125 21.40625 
Q 2.78125 30.90625 9.25 37.859375 
Q 15.71875 44.828125 25 44.828125 
Q 34.078125 44.828125 40.59375 37.90625 
Q 47.125 31 47.125 21.390625 
Q 47.125 11.96875 40.546875 5.421875 
Q 33.984375 -1.125 24.90625 -1.125 
Q 16.015625 -1.125 2.78125 11.921875 
z
M 11.078125 22.21875 
Q 11.078125 12.5 13.625 8.109375 
Q 17.53125 1.421875 25 1.421875 
Q 28.71875 1.421875 31.8125 3.421875 
Q 34.90625 5.421875 36.625 8.796875 
Q 38.8125 13.1875 38.8125 22.21875 
Q 38.8125 31.84375 36.1875 36.078125 
Q 32.28125 42.578125 24.90625 42.578125 
Q 21.6875 42.578125 18.53125 40.890625 
Q 15.375 39.203125 13.484375 35.890625 
Q 11.078125 31.5 11.078125 22.21875 
z
" id="CMUSerif-Roman-6f"/>
      <path d="M 3.328125 1.3125 
L 3.328125 14.5 
Q 3.328125 15.625 3.375 16.015625 
Q 3.421875 16.40625 3.703125 16.703125 
Q 4 17 4.59375 17 
Q 5.28125 17 5.546875 16.703125 
Q 5.8125 16.40625 6 15.28125 
Q 7.515625 8.40625 10.765625 4.765625 
Q 14.015625 1.125 19.921875 1.125 
Q 25.53125 1.125 28.359375 3.609375 
Q 31.203125 6.109375 31.203125 10.203125 
Q 31.203125 17.53125 20.796875 19.390625 
Q 14.796875 20.609375 12.296875 21.40625 
Q 9.8125 22.21875 7.625 24.03125 
Q 3.328125 27.546875 3.328125 32.515625 
Q 3.328125 37.5 7.109375 41.15625 
Q 10.890625 44.828125 19.28125 44.828125 
Q 24.90625 44.828125 28.71875 42 
Q 29.828125 42.875 30.421875 43.609375 
Q 31.734375 44.828125 32.421875 44.828125 
Q 33.203125 44.828125 33.34375 44.3125 
Q 33.5 43.796875 33.5 42.390625 
L 33.5 32.328125 
Q 33.5 31.203125 33.453125 30.8125 
Q 33.40625 30.421875 33.109375 30.15625 
Q 32.8125 29.890625 32.171875 29.890625 
Q 31.0625 29.890625 31 30.8125 
Q 30.21875 42.921875 19.28125 42.921875 
Q 13.375 42.921875 10.734375 40.640625 
Q 8.109375 38.375 8.109375 35.296875 
Q 8.109375 33.59375 8.90625 32.296875 
Q 9.71875 31 10.765625 30.25 
Q 11.8125 29.5 13.765625 28.78125 
Q 15.71875 28.078125 16.90625 27.828125 
Q 18.109375 27.59375 20.40625 27.09375 
Q 28.421875 25.59375 31.78125 22.3125 
Q 35.984375 18.109375 35.984375 12.796875 
Q 35.984375 6.890625 31.984375 2.875 
Q 27.984375 -1.125 19.921875 -1.125 
Q 13.421875 -1.125 8.890625 3.21875 
Q 8.296875 2.640625 7.859375 2.125 
Q 7.421875 1.609375 7.25 1.40625 
Q 7.078125 1.21875 7.03125 1.09375 
Q 6.984375 0.984375 6.890625 0.875 
Q 4.890625 -1.125 4.390625 -1.125 
Q 3.609375 -1.125 3.46875 -0.609375 
Q 3.328125 -0.09375 3.328125 1.3125 
z
" id="CMUSerif-Roman-73"/>
      <path d="M 3.328125 0 
L 3.328125 3.078125 
Q 8.640625 3.078125 9.859375 3.734375 
Q 11.078125 4.390625 11.078125 7.625 
L 11.078125 34.515625 
Q 11.078125 38.234375 9.828125 39.109375 
Q 8.59375 39.984375 3.71875 39.984375 
L 3.71875 43.109375 
L 17.671875 44.1875 
L 17.671875 7.515625 
Q 17.671875 4.546875 18.75 3.8125 
Q 19.828125 3.078125 24.703125 3.078125 
L 24.703125 0 
Q 14.5 0.296875 14.3125 0.296875 
Q 12.9375 0.296875 3.328125 0 
z
M 7.515625 61.625 
Q 7.515625 63.625 9.046875 65.25 
Q 10.59375 66.890625 12.78125 66.890625 
Q 14.984375 66.890625 16.546875 65.40625 
Q 18.109375 63.921875 18.109375 61.59375 
Q 18.109375 59.28125 16.546875 57.78125 
Q 14.984375 56.296875 12.796875 56.296875 
Q 10.5 56.296875 9 57.90625 
Q 7.515625 59.515625 7.515625 61.625 
z
" id="CMUSerif-Roman-69"/>
      <path d="M 1.90625 39.984375 
L 1.90625 42.1875 
Q 6.5 42.390625 9.546875 45.625 
Q 12.59375 48.875 13.640625 52.875 
Q 14.703125 56.890625 14.796875 61.53125 
L 17.28125 61.53125 
L 17.28125 43.109375 
L 31.59375 43.109375 
L 31.59375 39.984375 
L 17.28125 39.984375 
L 17.28125 12.203125 
Q 17.28125 1.421875 24.03125 1.421875 
Q 26.90625 1.421875 28.8125 4.375 
Q 30.71875 7.328125 30.71875 12.59375 
L 30.71875 18.109375 
L 33.203125 18.109375 
L 33.203125 12.40625 
Q 33.203125 6.984375 30.703125 2.921875 
Q 28.21875 -1.125 23.296875 -1.125 
Q 21.484375 -1.125 19.703125 -0.65625 
Q 17.921875 -0.203125 15.59375 1 
Q 13.28125 2.203125 11.84375 5.15625 
Q 10.40625 8.109375 10.40625 12.40625 
L 10.40625 39.984375 
z
" id="CMUSerif-Roman-74"/>
      <path d="M 3.21875 0 
L 3.21875 3.078125 
Q 8.546875 3.078125 9.765625 3.734375 
Q 10.984375 4.390625 10.984375 7.625 
L 10.984375 34.421875 
Q 10.984375 38.140625 9.6875 39.0625 
Q 8.40625 39.984375 3.21875 39.984375 
L 3.21875 43.109375 
L 17.28125 44.1875 
L 17.28125 33.6875 
Q 21.96875 44.1875 32.078125 44.1875 
Q 39.59375 44.1875 42.578125 40.484375 
Q 44.78125 37.984375 45.234375 35.203125 
Q 45.703125 32.421875 45.703125 25.203125 
L 45.703125 6.109375 
Q 45.796875 4 47.40625 3.53125 
Q 49.03125 3.078125 53.515625 3.078125 
L 53.515625 0 
Q 43.3125 0.296875 42.28125 0.296875 
Q 41.5 0.296875 31 0 
L 31 3.078125 
Q 36.328125 3.078125 37.5625 3.734375 
Q 38.8125 4.390625 38.8125 7.625 
L 38.8125 30.90625 
Q 38.8125 35.984375 37.25 38.984375 
Q 35.6875 42 31.390625 42 
Q 26.21875 42 22.0625 37.640625 
Q 17.921875 33.296875 17.921875 25.984375 
L 17.921875 7.625 
Q 17.921875 4.390625 19.15625 3.734375 
Q 20.40625 3.078125 25.6875 3.078125 
L 25.6875 0 
Q 15.484375 0.296875 14.5 0.296875 
Q 13.71875 0.296875 3.21875 0 
z
" id="CMUSerif-Roman-6e"/>
     </defs>
     <g transform="translate(277.6675 473.02875)scale(0.24 -0.24)">
      <use xlink:href="#CMUSerif-Roman-50"/>
      <use x="67.96875" xlink:href="#CMUSerif-Roman-6f"/>
      <use x="117.96875" xlink:href="#CMUSerif-Roman-73"/>
      <use x="157.324219" xlink:href="#CMUSerif-Roman-69"/>
      <use x="185.009766" xlink:href="#CMUSerif-Roman-74"/>
      <use x="223.779297" xlink:href="#CMUSerif-Roman-69"/>
      <use x="251.464844" xlink:href="#CMUSerif-Roman-6f"/>
      <use x="301.464844" xlink:href="#CMUSerif-Roman-6e"/>
     </g>
    </g>
   </g>
   <g id="matplotlib.axis_2">
    <g id="ytick_1">
     <g id="line2d_5">
      <defs>
       <path d="M 0 0 
L -3.5 0 
" id="m9daceed0a0" style="stroke:#000000;stroke-width:0.8;"/>
      </defs>
      <g>
       <use style="stroke:#000000;stroke-width:0.8;" x="116.48" xlink:href="#m9daceed0a0" y="405.353044"/>
      </g>
     </g>
     <g id="text_6">
      <!-- −1.0 -->
      <defs>
       <path d="M 10.59375 35.5 
L 73.1875 35.5 
L 73.1875 27.203125 
L 10.59375 27.203125 
z
" id="DejaVuSans-2212"/>
       <path d="M 12.40625 8.296875 
L 28.515625 8.296875 
L 28.515625 63.921875 
L 10.984375 60.40625 
L 10.984375 69.390625 
L 28.421875 72.90625 
L 38.28125 72.90625 
L 38.28125 8.296875 
L 54.390625 8.296875 
L 54.390625 0 
L 12.40625 0 
z
" id="DejaVuSans-31"/>
       <path d="M 10.6875 12.40625 
L 21 12.40625 
L 21 0 
L 10.6875 0 
z
" id="DejaVuSans-2e"/>
      </defs>
      <g transform="translate(51.20125 414.471169)scale(0.24 -0.24)">
       <use xlink:href="#DejaVuSans-2212"/>
       <use x="83.789062" xlink:href="#DejaVuSans-31"/>
       <use x="147.412109" xlink:href="#DejaVuSans-2e"/>
       <use x="179.199219" xlink:href="#DejaVuSans-30"/>
      </g>
     </g>
    </g>
    <g id="ytick_2">
     <g id="line2d_6">
      <g>
       <use style="stroke:#000000;stroke-width:0.8;" x="116.48" xlink:href="#m9daceed0a0" y="321.264334"/>
      </g>
     </g>
     <g id="text_7">
      <!-- −0.5 -->
      <defs>
       <path d="M 10.796875 72.90625 
L 49.515625 72.90625 
L 49.515625 64.59375 
L 19.828125 64.59375 
L 19.828125 46.734375 
Q 21.96875 47.46875 24.109375 47.828125 
Q 26.265625 48.1875 28.421875 48.1875 
Q 40.625 48.1875 47.75 41.5 
Q 54.890625 34.8125 54.890625 23.390625 
Q 54.890625 11.625 47.5625 5.09375 
Q 40.234375 -1.421875 26.90625 -1.421875 
Q 22.3125 -1.421875 17.546875 -0.640625 
Q 12.796875 0.140625 7.71875 1.703125 
L 7.71875 11.625 
Q 12.109375 9.234375 16.796875 8.0625 
Q 21.484375 6.890625 26.703125 6.890625 
Q 35.15625 6.890625 40.078125 11.328125 
Q 45.015625 15.765625 45.015625 23.390625 
Q 45.015625 31 40.078125 35.4375 
Q 35.15625 39.890625 26.703125 39.890625 
Q 22.75 39.890625 18.8125 39.015625 
Q 14.890625 38.140625 10.796875 36.28125 
z
" id="DejaVuSans-35"/>
      </defs>
      <g transform="translate(51.20125 330.382459)scale(0.24 -0.24)">
       <use xlink:href="#DejaVuSans-2212"/>
       <use x="83.789062" xlink:href="#DejaVuSans-30"/>
       <use x="147.412109" xlink:href="#DejaVuSans-2e"/>
       <use x="179.199219" xlink:href="#DejaVuSans-35"/>
      </g>
     </g>
    </g>
    <g id="ytick_3">
     <g id="line2d_7">
      <g>
       <use style="stroke:#000000;stroke-width:0.8;" x="116.48" xlink:href="#m9daceed0a0" y="237.175625"/>
      </g>
     </g>
     <g id="text_8">
      <!-- 0.0 -->
      <g transform="translate(71.3125 246.29375)scale(0.24 -0.24)">
       <use xlink:href="#DejaVuSans-30"/>
       <use x="63.623047" xlink:href="#DejaVuSans-2e"/>
       <use x="95.410156" xlink:href="#DejaVuSans-30"/>
      </g>
     </g>
    </g>
    <g id="ytick_4">
     <g id="line2d_8">
      <g>
       <use style="stroke:#000000;stroke-width:0.8;" x="116.48" xlink:href="#m9daceed0a0" y="153.086916"/>
      </g>
     </g>
     <g id="text_9">
      <!-- 0.5 -->
      <g transform="translate(71.3125 162.205041)scale(0.24 -0.24)">
       <use xlink:href="#DejaVuSans-30"/>
       <use x="63.623047" xlink:href="#DejaVuSans-2e"/>
       <use x="95.410156" xlink:href="#DejaVuSans-35"/>
      </g>
     </g>
    </g>
    <g id="ytick_5">
     <g id="line2d_9">
      <g>
       <use style="stroke:#000000;stroke-width:0.8;" x="116.48" xlink:href="#m9daceed0a0" y="68.998206"/>
      </g>
     </g>
     <g id="text_10">
      <!-- 1.0 -->
      <g transform="translate(71.3125 78.116331)scale(0.24 -0.24)">
       <use xlink:href="#DejaVuSans-31"/>
       <use x="63.623047" xlink:href="#DejaVuSans-2e"/>
       <use x="95.410156" xlink:href="#DejaVuSans-30"/>
      </g>
     </g>
    </g>
    <g id="text_11">
     <!-- Amplitude -->
     <defs>
      <path d="M 3.21875 0 
L 3.21875 3.078125 
Q 12.109375 3.265625 14.40625 9.8125 
L 35.109375 69.578125 
Q 35.5 70.796875 35.9375 71.1875 
Q 36.375 71.578125 37.5 71.578125 
Q 38.09375 71.578125 38.453125 71.484375 
Q 38.8125 71.390625 39.0625 71.046875 
Q 39.3125 70.703125 39.40625 70.5 
Q 39.5 70.3125 39.796875 69.578125 
L 61.375 7.078125 
Q 62.15625 4.59375 63.765625 3.828125 
Q 65.375 3.078125 69.921875 3.078125 
L 71.6875 3.078125 
L 71.6875 0 
Q 65.375 0.296875 58.59375 0.296875 
Q 47.796875 0.296875 44.1875 0 
L 44.1875 3.078125 
Q 52.484375 3.078125 52.484375 6.109375 
Q 52.484375 6.296875 52.203125 7.515625 
L 46.921875 22.796875 
L 22.21875 22.796875 
L 17.578125 9.71875 
Q 17.390625 9.328125 17.390625 8.203125 
Q 17.390625 6.109375 19.34375 4.59375 
Q 21.296875 3.078125 24.90625 3.078125 
L 24.90625 0 
Q 15.28125 0.296875 13.375 0.296875 
Q 10.109375 0.296875 3.21875 0 
z
M 23.296875 25.875 
L 45.796875 25.875 
L 34.515625 58.40625 
z
" id="CMUSerif-Roman-41"/>
      <path d="M 3.21875 0 
L 3.21875 3.078125 
Q 8.546875 3.078125 9.765625 3.734375 
Q 10.984375 4.390625 10.984375 7.625 
L 10.984375 34.421875 
Q 10.984375 38.140625 9.6875 39.0625 
Q 8.40625 39.984375 3.21875 39.984375 
L 3.21875 43.109375 
L 17.28125 44.1875 
L 17.28125 33.6875 
Q 21.96875 44.1875 32.078125 44.1875 
Q 43.796875 44.1875 45.40625 34.421875 
Q 47.125 38.234375 50.703125 41.203125 
Q 54.296875 44.1875 59.90625 44.1875 
Q 67.4375 44.1875 70.40625 40.484375 
Q 72.609375 37.984375 73.046875 35.203125 
Q 73.484375 32.421875 73.484375 25.203125 
L 73.484375 6.109375 
Q 73.578125 4 75.1875 3.53125 
Q 76.8125 3.078125 81.296875 3.078125 
L 81.296875 0 
Q 71.09375 0.296875 70.125 0.296875 
Q 69.34375 0.296875 58.796875 0 
L 58.796875 3.078125 
Q 64.109375 3.078125 65.359375 3.734375 
Q 66.609375 4.390625 66.609375 7.625 
L 66.609375 30.90625 
Q 66.609375 35.984375 65.046875 38.984375 
Q 63.484375 42 59.1875 42 
Q 54 42 49.84375 37.640625 
Q 45.703125 33.296875 45.703125 25.984375 
L 45.703125 7.625 
Q 45.703125 4.390625 46.9375 3.734375 
Q 48.1875 3.078125 53.515625 3.078125 
L 53.515625 0 
Q 43.3125 0.296875 42.28125 0.296875 
Q 41.5 0.296875 31 0 
L 31 3.078125 
Q 36.328125 3.078125 37.5625 3.734375 
Q 38.8125 4.390625 38.8125 7.625 
L 38.8125 30.90625 
Q 38.8125 35.984375 37.25 38.984375 
Q 35.6875 42 31.390625 42 
Q 26.21875 42 22.0625 37.640625 
Q 17.921875 33.296875 17.921875 25.984375 
L 17.921875 7.625 
Q 17.921875 4.390625 19.15625 3.734375 
Q 20.40625 3.078125 25.6875 3.078125 
L 25.6875 0 
Q 15.484375 0.296875 14.5 0.296875 
Q 13.71875 0.296875 3.21875 0 
z
" id="CMUSerif-Roman-6d"/>
      <path d="M 2.78125 -16.3125 
Q 8.109375 -16.3125 9.34375 -15.640625 
Q 10.59375 -14.984375 10.59375 -11.8125 
L 10.59375 35.015625 
Q 10.59375 38.328125 9.34375 39.15625 
Q 8.109375 39.984375 2.78125 39.984375 
L 2.78125 43.109375 
L 17.1875 44.1875 
L 17.1875 37.59375 
Q 23.1875 44.1875 31.203125 44.1875 
Q 39.703125 44.1875 45.890625 37.59375 
Q 52.09375 31 52.09375 21.578125 
Q 52.09375 12.0625 45.5 5.46875 
Q 38.921875 -1.125 29.78125 -1.125 
Q 24.8125 -1.125 21.453125 1.4375 
Q 18.109375 4 17.484375 5.90625 
L 17.484375 4.984375 
L 17.484375 -11.8125 
Q 17.484375 -15.046875 18.75 -15.671875 
Q 20.015625 -16.3125 25.296875 -16.3125 
L 25.296875 -19.390625 
Q 14.796875 -19.09375 14.015625 -19.09375 
Q 13.03125 -19.09375 2.78125 -19.390625 
z
M 17.484375 11.375 
Q 17.484375 9.859375 17.703125 9.328125 
Q 17.921875 8.796875 18.890625 7.171875 
Q 22.859375 1.125 29.296875 1.125 
Q 29.34375 1.125 29.390625 1.125 
Q 35.109375 1.125 39.453125 6.953125 
Q 43.796875 12.796875 43.796875 21.578125 
Q 43.796875 29.984375 39.84375 35.84375 
Q 35.890625 41.703125 30.421875 41.703125 
Q 26.515625 41.703125 23.09375 39.59375 
Q 19.671875 37.5 17.484375 33.6875 
z
" id="CMUSerif-Roman-70"/>
      <path d="M 3.328125 0 
L 3.328125 3.078125 
Q 8.640625 3.078125 9.859375 3.734375 
Q 11.078125 4.390625 11.078125 7.625 
L 11.078125 59.625 
Q 11.078125 63.328125 9.78125 64.25 
Q 8.5 65.1875 3.328125 65.1875 
L 3.328125 68.3125 
L 17.671875 69.390625 
L 17.671875 7.625 
Q 17.671875 4.390625 18.9375 3.734375 
Q 20.21875 3.078125 25.484375 3.078125 
L 25.484375 0 
Q 24.265625 0 21.71875 0.09375 
Q 19.1875 0.203125 17.328125 0.25 
Q 15.484375 0.296875 14.40625 0.296875 
Q 13.234375 0.296875 3.328125 0 
z
" id="CMUSerif-Roman-6c"/>
      <path d="M 3.21875 39.984375 
L 3.21875 43.109375 
L 17.921875 44.1875 
L 17.921875 10.984375 
Q 17.921875 8.59375 18.109375 7.203125 
Q 18.3125 5.8125 19.109375 4.203125 
Q 19.921875 2.59375 21.796875 1.859375 
Q 23.6875 1.125 26.703125 1.125 
Q 32.125 1.125 35.46875 5.5625 
Q 38.8125 10.015625 38.8125 16.609375 
L 38.8125 34.421875 
Q 38.8125 38.140625 37.5 39.0625 
Q 36.1875 39.984375 31 39.984375 
L 31 43.109375 
L 45.703125 44.1875 
L 45.703125 8.6875 
Q 45.703125 4.984375 47 4.03125 
Q 48.296875 3.078125 53.515625 3.078125 
L 53.515625 0 
L 39.109375 -1.125 
L 39.109375 7.90625 
Q 34.90625 -1.078125 26.21875 -1.125 
Q 21.828125 -1.125 18.828125 0 
Q 15.828125 1.125 14.3125 2.515625 
Q 12.796875 3.90625 11.984375 6.59375 
Q 11.1875 9.28125 11.078125 10.9375 
Q 10.984375 12.59375 10.984375 15.828125 
L 10.984375 30.8125 
Q 10.984375 37.59375 10 38.78125 
Q 9.03125 39.984375 3.21875 39.984375 
z
" id="CMUSerif-Roman-75"/>
      <path d="M 3.421875 21.484375 
Q 3.421875 31 10.0625 37.59375 
Q 16.703125 44.1875 25.6875 44.1875 
Q 33.296875 44.1875 38.28125 37.984375 
L 38.28125 59.625 
Q 38.28125 63.328125 36.984375 64.25 
Q 35.6875 65.1875 30.515625 65.1875 
L 30.515625 68.3125 
L 44.921875 69.390625 
L 44.921875 8.6875 
Q 44.921875 4.984375 46.21875 4.03125 
Q 47.515625 3.078125 52.6875 3.078125 
L 52.6875 0 
L 37.984375 -1.125 
L 37.984375 5.515625 
Q 32.8125 -1.078125 24.609375 -1.125 
Q 16.015625 -1.125 9.71875 5.46875 
Q 3.421875 12.0625 3.421875 21.484375 
z
M 11.71875 21.390625 
Q 11.71875 12.109375 14.59375 7.515625 
Q 18.609375 1.125 25.09375 1.125 
Q 32.515625 1.125 36.921875 8.109375 
Q 38.03125 9.8125 37.984375 11.8125 
L 37.984375 32.328125 
Q 37.984375 34.328125 36.921875 35.984375 
Q 32.8125 42 26.125 42 
Q 19.140625 42 14.796875 35.59375 
Q 11.71875 30.8125 11.71875 21.390625 
z
" id="CMUSerif-Roman-64"/>
      <path d="M 2.78125 22.015625 
Q 2.78125 31.453125 8.828125 38.140625 
Q 14.890625 44.828125 23.578125 44.828125 
Q 32.375 44.828125 36.9375 39.109375 
Q 41.5 33.40625 41.5 25.203125 
Q 41.5 23.6875 41.109375 23.390625 
Q 40.71875 23.09375 39.015625 23.09375 
L 11.078125 23.09375 
Q 11.078125 12.890625 14.109375 8.109375 
Q 18.3125 1.421875 25.390625 1.421875 
Q 26.375 1.421875 27.546875 1.609375 
Q 28.71875 1.8125 31.109375 2.65625 
Q 33.5 3.515625 35.59375 5.8125 
Q 37.703125 8.109375 38.921875 11.71875 
Q 39.203125 13.140625 40.1875 13.09375 
Q 41.5 13.09375 41.5 11.921875 
Q 41.5 11.03125 40.546875 9.046875 
Q 39.59375 7.078125 37.78125 4.734375 
Q 35.984375 2.390625 32.484375 0.625 
Q 29 -1.125 24.8125 -1.125 
Q 16.015625 -1.125 9.390625 5.53125 
Q 2.78125 12.203125 2.78125 22.015625 
z
M 11.1875 25.203125 
L 34.90625 25.203125 
Q 34.90625 27.296875 34.546875 29.640625 
Q 34.1875 31.984375 33.125 35.234375 
Q 32.078125 38.484375 29.640625 40.53125 
Q 27.203125 42.578125 23.578125 42.578125 
Q 21.96875 42.578125 20.234375 41.890625 
Q 18.5 41.21875 16.40625 39.546875 
Q 14.3125 37.890625 12.84375 34.125 
Q 11.375 30.375 11.1875 25.203125 
z
" id="CMUSerif-Roman-65"/>
     </defs>
     <g transform="translate(42.5475 292.758125)rotate(-90)scale(0.24 -0.24)">
      <use xlink:href="#CMUSerif-Roman-41"/>
      <use x="75" xlink:href="#CMUSerif-Roman-6d"/>
      <use x="158.251953" xlink:href="#CMUSerif-Roman-70"/>
      <use x="213.720703" xlink:href="#CMUSerif-Roman-6c"/>
      <use x="241.40625" xlink:href="#CMUSerif-Roman-69"/>
      <use x="269.091797" xlink:href="#CMUSerif-Roman-74"/>
      <use x="307.861328" xlink:href="#CMUSerif-Roman-75"/>
      <use x="363.330078" xlink:href="#CMUSerif-Roman-64"/>
      <use x="418.798828" xlink:href="#CMUSerif-Roman-65"/>
     </g>
    </g>
   </g>
   <g id="line2d_10">
    <path clip-path="url(#pa05a8ebe77)" d="M 135.027273 237.175625 
L 148.141506 200.124368 
L 155.635354 179.65556 
L 161.255739 164.893826 
L 166.876125 150.786687 
L 172.496511 137.4619 
L 176.243434 129.073264 
L 179.990358 121.119918 
L 183.737282 113.633888 
L 187.484206 106.645316 
L 191.231129 100.182344 
L 194.978053 94.270995 
L 198.724977 88.935073 
L 202.471901 84.196064 
L 206.218825 80.073049 
L 208.092287 78.247826 
L 209.965748 76.582631 
L 211.83921 75.079139 
L 213.712672 73.738864 
L 215.586134 72.563156 
L 217.459596 71.553199 
L 219.333058 70.71001 
L 221.20652 70.034437 
L 223.079982 69.527162 
L 224.953444 69.188694 
L 226.826905 69.019375 
L 228.700367 69.019375 
L 230.573829 69.188694 
L 232.447291 69.527162 
L 234.320753 70.034437 
L 236.194215 70.71001 
L 238.067677 71.553199 
L 239.941139 72.563156 
L 241.814601 73.738864 
L 243.688062 75.079139 
L 245.561524 76.582631 
L 247.434986 78.247826 
L 249.308448 80.073049 
L 253.055372 84.196064 
L 256.802296 88.935073 
L 260.549219 94.270995 
L 264.296143 100.182344 
L 268.043067 106.645316 
L 271.789991 113.633888 
L 275.536915 121.119918 
L 279.283838 129.073264 
L 283.030762 137.4619 
L 286.777686 146.252048 
L 292.398072 160.112271 
L 298.018457 174.670393 
L 303.638843 189.794571 
L 311.132691 210.603358 
L 339.234619 289.652605 
L 344.855005 304.603088 
L 350.47539 318.942937 
L 356.095776 332.542289 
L 359.8427 341.136008 
L 363.589624 349.311114 
L 367.336547 357.034691 
L 371.083471 364.275638 
L 374.830395 371.004797 
L 378.577319 377.195074 
L 382.324242 382.821542 
L 386.071166 387.861545 
L 389.81809 392.294789 
L 393.565014 396.103424 
L 395.438476 397.768619 
L 397.311938 399.272111 
L 399.185399 400.612386 
L 401.058861 401.788094 
L 402.932323 402.798051 
L 404.805785 403.64124 
L 406.679247 404.316813 
L 408.552709 404.824088 
L 410.426171 405.162556 
L 412.299633 405.331875 
L 414.173095 405.331875 
L 416.046556 405.162556 
L 417.920018 404.824088 
L 419.79348 404.316813 
L 421.666942 403.64124 
L 423.540404 402.798051 
L 425.413866 401.788094 
L 427.287328 400.612386 
L 429.16079 399.272111 
L 431.034252 397.768619 
L 432.907713 396.103424 
L 434.781175 394.278201 
L 438.528099 390.155186 
L 442.275023 385.416177 
L 446.021947 380.080255 
L 449.768871 374.168906 
L 453.515794 367.705934 
L 457.262718 360.717362 
L 461.009642 353.231332 
L 464.756566 345.277986 
L 468.503489 336.88935 
L 472.250413 328.099202 
L 477.870799 314.238979 
L 483.491185 299.680857 
L 489.11157 284.556679 
L 496.605418 263.747892 
L 505.972727 237.175625 
L 505.972727 237.175625 
" style="fill:none;stroke:#1f77b4;stroke-linecap:square;stroke-width:3;"/>
   </g>
   <g id="line2d_11">
    <path clip-path="url(#pa05a8ebe77)" d="M 135.027273 280.11663 
L 142.52112 266.542213 
L 151.88843 248.936084 
L 172.496511 209.79569 
L 179.990358 196.140037 
L 185.610744 186.319955 
L 191.231129 176.960431 
L 196.851515 168.146224 
L 200.598439 162.612685 
L 204.345363 157.379384 
L 208.092287 152.467395 
L 211.83921 147.896496 
L 215.586134 143.685093 
L 219.333058 139.850142 
L 223.079982 136.407088 
L 226.826905 133.369792 
L 230.573829 130.750486 
L 234.320753 128.559717 
L 238.067677 126.806305 
L 241.814601 125.497312 
L 245.561524 124.638008 
L 247.434986 124.378141 
L 249.308448 124.231853 
L 251.18191 124.199289 
L 253.055372 124.280482 
L 254.928834 124.475352 
L 256.802296 124.783701 
L 260.549219 125.739482 
L 264.296143 127.143978 
L 268.043067 128.991532 
L 271.789991 131.274705 
L 275.536915 133.984304 
L 279.283838 137.109417 
L 283.030762 140.637462 
L 286.777686 144.554233 
L 290.52461 148.843956 
L 294.271534 153.489361 
L 298.018457 158.47174 
L 301.765381 163.771032 
L 305.512305 169.365899 
L 311.132691 178.262816 
L 316.753076 187.693257 
L 322.373462 197.571818 
L 329.867309 211.285198 
L 339.234619 228.986201 
L 357.969238 264.55556 
L 365.463085 278.211213 
L 371.083471 288.031295 
L 376.703857 297.390819 
L 382.324242 306.205026 
L 386.071166 311.738565 
L 389.81809 316.971866 
L 393.565014 321.883855 
L 397.311938 326.454754 
L 401.058861 330.666157 
L 404.805785 334.501108 
L 408.552709 337.944162 
L 412.299633 340.981458 
L 416.046556 343.600764 
L 419.79348 345.791533 
L 423.540404 347.544945 
L 427.287328 348.853938 
L 431.034252 349.713242 
L 432.907713 349.973109 
L 434.781175 350.119397 
L 436.654637 350.151961 
L 438.528099 350.070768 
L 440.401561 349.875898 
L 442.275023 349.567549 
L 446.021947 348.611768 
L 449.768871 347.207272 
L 453.515794 345.359718 
L 457.262718 343.076545 
L 461.009642 340.366946 
L 464.756566 337.241833 
L 468.503489 333.713788 
L 472.250413 329.797017 
L 475.997337 325.507294 
L 479.744261 320.861889 
L 483.491185 315.87951 
L 487.238108 310.580218 
L 490.985032 304.985351 
L 496.605418 296.088434 
L 502.225803 286.657993 
L 505.972727 280.11663 
L 505.972727 280.11663 
" style="fill:none;stroke:#ff7f0e;stroke-linecap:square;stroke-width:3;"/>
   </g>
   <g id="line2d_12">
    <path clip-path="url(#pa05a8ebe77)" d="M 135.027273 290.529899 
L 138.774197 287.067948 
L 144.394582 281.502916 
L 150.014968 275.536449 
L 155.635354 269.22258 
L 161.255739 262.618489 
L 168.749587 253.46526 
L 179.990358 239.291212 
L 194.978053 220.362839 
L 202.471901 211.228777 
L 208.092287 204.644405 
L 213.712672 198.35464 
L 219.333058 192.416445 
L 224.953444 186.883595 
L 228.700367 183.44513 
L 232.447291 180.223018 
L 236.194215 177.230235 
L 239.941139 174.47883 
L 243.688062 171.979884 
L 247.434986 169.743457 
L 251.18191 167.778556 
L 254.928834 166.093093 
L 258.675758 164.693854 
L 262.422681 163.586473 
L 266.169605 162.77541 
L 269.916529 162.263931 
L 273.663453 162.054094 
L 277.410376 162.146745 
L 281.1573 162.541511 
L 284.904224 163.236802 
L 288.651148 164.229819 
L 292.398072 165.516563 
L 296.144995 167.091852 
L 299.891919 168.949345 
L 303.638843 171.08156 
L 307.385767 173.479913 
L 311.132691 176.134746 
L 314.879614 179.035369 
L 318.626538 182.170102 
L 322.373462 185.526323 
L 327.993848 190.946151 
L 333.614233 196.784641 
L 339.234619 202.988918 
L 344.855005 209.502794 
L 352.348852 218.567267 
L 361.716162 230.301325 
L 382.324242 256.303122 
L 389.81809 265.346366 
L 395.438476 271.83904 
L 401.058861 278.017797 
L 406.679247 283.826681 
L 412.299633 289.213086 
L 416.046556 292.545052 
L 419.79348 295.654065 
L 423.540404 298.527605 
L 427.287328 301.154103 
L 431.034252 303.522983 
L 434.781175 305.624704 
L 438.528099 307.450806 
L 442.275023 308.993934 
L 446.021947 310.247875 
L 449.768871 311.20758 
L 453.515794 311.869185 
L 457.262718 312.230024 
L 461.009642 312.288647 
L 464.756566 312.044815 
L 468.503489 311.499512 
L 472.250413 310.654933 
L 475.997337 309.514478 
L 479.744261 308.082741 
L 483.491185 306.365486 
L 487.238108 304.369627 
L 490.985032 302.103202 
L 494.731956 299.575336 
L 498.47888 296.796209 
L 502.225803 293.777011 
L 505.972727 290.529899 
L 505.972727 290.529899 
" style="fill:none;stroke:#2ca02c;stroke-linecap:square;stroke-width:3;"/>
   </g>
   <g id="line2d_13">
    <path clip-path="url(#pa05a8ebe77)" d="M 135.027273 283.54757 
L 138.774197 282.275559 
L 142.52112 280.821947 
L 146.268044 279.192586 
L 150.014968 277.394038 
L 155.635354 274.39501 
L 161.255739 271.058918 
L 166.876125 267.415974 
L 172.496511 263.499169 
L 178.116896 259.343973 
L 185.610744 253.498191 
L 194.978053 245.83308 
L 226.826905 219.330031 
L 234.320753 213.566678 
L 239.941139 209.488601 
L 245.561524 205.661263 
L 251.18191 202.119324 
L 256.802296 198.89486 
L 262.422681 196.017072 
L 266.169605 194.304152 
L 269.916529 192.76386 
L 273.663453 191.402398 
L 277.410376 190.225249 
L 281.1573 189.237153 
L 284.904224 188.442088 
L 288.651148 187.843255 
L 292.398072 187.443067 
L 296.144995 187.243134 
L 299.891919 187.244262 
L 303.638843 187.446445 
L 307.385767 187.848871 
L 311.132691 188.449918 
L 314.879614 189.247166 
L 318.626538 190.237405 
L 322.373462 191.416648 
L 326.120386 192.780146 
L 329.867309 194.322409 
L 333.614233 196.037227 
L 339.234619 198.917706 
L 344.855005 202.144654 
L 350.47539 205.688849 
L 356.095776 209.518192 
L 361.716162 213.598006 
L 369.210009 219.363233 
L 376.703857 225.415067 
L 387.944628 234.816322 
L 404.805785 248.970723 
L 412.299633 255.021219 
L 419.79348 260.784572 
L 425.413866 264.862649 
L 431.034252 268.689987 
L 436.654637 272.231926 
L 442.275023 275.45639 
L 447.895409 278.334178 
L 451.642332 280.047098 
L 455.389256 281.58739 
L 459.13618 282.948852 
L 462.883104 284.126001 
L 466.630028 285.114097 
L 470.376951 285.909162 
L 474.123875 286.507995 
L 477.870799 286.908183 
L 481.617723 287.108116 
L 485.364646 287.106988 
L 489.11157 286.904805 
L 492.858494 286.502379 
L 496.605418 285.901332 
L 500.352342 285.104084 
L 504.099265 284.113845 
L 505.972727 283.54757 
L 505.972727 283.54757 
" style="fill:none;stroke:#d62728;stroke-linecap:square;stroke-width:3;"/>
   </g>
   <g id="line2d_14">
    <path clip-path="url(#pa05a8ebe77)" d="M 135.027273 270.389589 
L 140.647658 270.298318 
L 146.268044 269.907082 
L 151.88843 269.219426 
L 157.508815 268.241575 
L 163.129201 266.982387 
L 168.749587 265.453264 
L 174.369972 263.668055 
L 179.990358 261.642926 
L 185.610744 259.396217 
L 191.231129 256.948275 
L 198.724977 253.409877 
L 206.218825 249.610264 
L 215.586134 244.586875 
L 230.573829 236.216529 
L 245.561524 227.907665 
L 254.928834 222.983714 
L 262.422681 219.295597 
L 269.916529 215.895175 
L 275.536915 213.566773 
L 281.1573 211.452176 
L 286.777686 209.570535 
L 292.398072 207.93889 
L 298.018457 206.572017 
L 303.638843 205.482296 
L 309.259229 204.679594 
L 314.879614 204.171181 
L 320.5 203.961661 
L 326.120386 204.052932 
L 331.740771 204.444168 
L 337.361157 205.131824 
L 342.981543 206.109675 
L 348.601928 207.368863 
L 354.222314 208.897986 
L 359.8427 210.683195 
L 365.463085 212.708324 
L 371.083471 214.955033 
L 376.703857 217.402975 
L 384.197704 220.941373 
L 391.691552 224.740986 
L 401.058861 229.764375 
L 416.046556 238.134721 
L 431.034252 246.443585 
L 440.401561 251.367536 
L 447.895409 255.055653 
L 455.389256 258.456075 
L 461.009642 260.784477 
L 466.630028 262.899074 
L 472.250413 264.780715 
L 477.870799 266.41236 
L 483.491185 267.779233 
L 489.11157 268.868954 
L 494.731956 269.671656 
L 500.352342 270.180069 
L 505.972727 270.389589 
L 505.972727 270.389589 
" style="fill:none;stroke:#9467bd;stroke-linecap:square;stroke-width:3;"/>
   </g>
   <g id="line2d_15">
    <path clip-path="url(#pa05a8ebe77)" d="M 135.027273 257.358356 
L 140.647658 258.120502 
L 146.268044 258.692968 
L 151.88843 259.07057 
L 157.508815 259.249888 
L 163.129201 259.229298 
L 168.749587 259.008986 
L 174.369972 258.590948 
L 179.990358 257.97897 
L 185.610744 257.178593 
L 191.231129 256.197067 
L 198.724977 254.622165 
L 206.218825 252.766543 
L 213.712672 250.660057 
L 221.20652 248.336601 
L 230.573829 245.184406 
L 241.814601 241.143538 
L 277.410376 228.121262 
L 286.777686 225.051399 
L 294.271534 222.811352 
L 301.765381 220.802432 
L 309.259229 219.056963 
L 316.753076 217.60303 
L 322.373462 216.718161 
L 327.993848 216.018558 
L 333.614233 215.510557 
L 339.234619 215.198758 
L 344.855005 215.085985 
L 350.47539 215.173259 
L 356.095776 215.45979 
L 361.716162 215.942983 
L 367.336547 216.618462 
L 372.956933 217.48011 
L 378.577319 218.520124 
L 386.071166 220.167765 
L 393.565014 222.089069 
L 401.058861 224.253122 
L 408.552709 226.625102 
L 417.920018 229.824063 
L 431.034252 234.59395 
L 457.262718 244.27369 
L 466.630028 247.489698 
L 475.997337 250.446593 
L 483.491185 252.575362 
L 490.985032 254.456344 
L 498.47888 256.059272 
L 504.099265 257.063301 
L 505.972727 257.358356 
L 505.972727 257.358356 
" style="fill:none;stroke:#8c564b;stroke-linecap:square;stroke-width:3;"/>
   </g>
   <g id="line2d_16">
    <path clip-path="url(#pa05a8ebe77)" d="M 135.027273 247.213143 
L 144.394582 248.781578 
L 151.88843 249.828049 
L 159.382277 250.670939 
L 166.876125 251.296683 
L 174.369972 251.695215 
L 181.86382 251.860121 
L 189.357668 251.788748 
L 196.851515 251.482244 
L 204.345363 250.945541 
L 211.83921 250.187276 
L 219.333058 249.219648 
L 226.826905 248.058227 
L 236.194215 246.362672 
L 245.561524 244.436318 
L 256.802296 241.888516 
L 271.789991 238.243348 
L 296.144995 232.280028 
L 307.385767 229.747495 
L 316.753076 227.838518 
L 326.120386 226.16411 
L 333.614233 225.021967 
L 341.108081 224.075381 
L 348.601928 223.339583 
L 356.095776 222.826411 
L 363.589624 222.544124 
L 371.083471 222.497263 
L 378.577319 222.686583 
L 386.071166 223.109037 
L 393.565014 223.757827 
L 401.058861 224.622515 
L 408.552709 225.689187 
L 417.920018 227.280133 
L 427.287328 229.119675 
L 438.528099 231.589833 
L 451.642332 234.720139 
L 487.238108 243.365517 
L 498.47888 245.774724 
L 505.972727 247.213143 
L 505.972727 247.213143 
" style="fill:none;stroke:#e377c2;stroke-linecap:square;stroke-width:3;"/>
   </g>
   <g id="line2d_17">
    <path clip-path="url(#pa05a8ebe77)" d="M 135.027273 240.547294 
L 148.141506 242.48413 
L 159.382277 243.939937 
L 170.623049 245.151264 
L 179.990358 245.942058 
L 189.357668 246.512621 
L 198.724977 246.848617 
L 208.092287 246.941606 
L 217.459596 246.789252 
L 226.826905 246.395383 
L 236.194215 245.769892 
L 245.561524 244.928494 
L 256.802296 243.663934 
L 268.043067 242.164868 
L 281.1573 240.192235 
L 301.765381 236.83284 
L 324.246924 233.229311 
L 337.361157 231.357773 
L 348.601928 229.978013 
L 357.969238 229.025086 
L 367.336547 228.276919 
L 376.703857 227.752308 
L 386.071166 227.464431 
L 395.438476 227.420521 
L 404.805785 227.621681 
L 414.173095 228.062857 
L 423.540404 228.732966 
L 432.907713 229.615174 
L 444.148485 230.922244 
L 455.389256 232.455327 
L 470.376951 234.754316 
L 505.972727 240.547294 
L 505.972727 240.547294 
" style="fill:none;stroke:#7f7f7f;stroke-linecap:square;stroke-width:3;"/>
   </g>
   <g id="line2d_18">
    <path clip-path="url(#pa05a8ebe77)" d="M 135.027273 236.867565 
L 165.002663 240.060843 
L 179.990358 241.429864 
L 193.104591 242.40665 
L 204.345363 243.040789 
L 215.586134 243.462946 
L 226.826905 243.657863 
L 238.067677 243.618495 
L 249.308448 243.346265 
L 260.549219 242.851012 
L 271.789991 242.150636 
L 284.904224 241.108419 
L 299.891919 239.684114 
L 322.373462 237.277681 
L 350.47539 234.290407 
L 365.463085 232.921386 
L 378.577319 231.9446 
L 389.81809 231.310461 
L 401.058861 230.888304 
L 412.299633 230.693387 
L 423.540404 230.732755 
L 434.781175 231.004985 
L 446.021947 231.500238 
L 457.262718 232.200614 
L 470.376951 233.242831 
L 485.364646 234.667136 
L 505.972727 236.867565 
L 505.972727 236.867565 
" style="fill:none;stroke:#bcbd22;stroke-linecap:square;stroke-width:3;"/>
   </g>
   <g id="line2d_19">
    <path clip-path="url(#pa05a8ebe77)" d="M 135.027273 235.307361 
L 159.382277 237.025378 
L 193.104591 239.382911 
L 209.965748 240.339436 
L 224.953444 240.976473 
L 238.067677 241.335038 
L 251.18191 241.489209 
L 264.296143 241.431408 
L 277.410376 241.164477 
L 292.398072 240.620608 
L 307.385767 239.855908 
L 326.120386 238.665266 
L 393.565014 234.106696 
L 408.552709 233.441779 
L 423.540404 233.016212 
L 436.654637 232.862041 
L 449.768871 232.919842 
L 462.883104 233.186773 
L 477.870799 233.730642 
L 492.858494 234.495342 
L 505.972727 235.307361 
L 505.972727 235.307361 
" style="fill:none;stroke:#17becf;stroke-linecap:square;stroke-width:3;"/>
   </g>
   <g id="line2d_20">
    <path clip-path="url(#pa05a8ebe77)" d="M 135.027273 235.023198 
L 155.635354 235.803371 
L 185.610744 237.203176 
L 221.20652 238.826881 
L 241.814601 239.53102 
L 258.675758 239.898623 
L 275.536915 240.045625 
L 292.398072 239.960116 
L 309.259229 239.649024 
L 327.993848 239.070014 
L 350.47539 238.131998 
L 417.920018 235.109483 
L 436.654637 234.590149 
L 453.515794 234.342531 
L 470.376951 234.324433 
L 487.238108 234.537321 
L 504.099265 234.96395 
L 505.972727 235.023198 
L 505.972727 235.023198 
" style="fill:none;stroke:#1f77b4;stroke-linecap:square;stroke-width:3;"/>
   </g>
   <g id="line2d_21">
    <path clip-path="url(#pa05a8ebe77)" d="M 135.027273 235.364986 
L 155.635354 235.681956 
L 179.990358 236.284423 
L 223.079982 237.637715 
L 254.928834 238.52398 
L 277.410376 238.930088 
L 298.018457 239.082347 
L 318.626538 239.004627 
L 339.234619 238.706302 
L 363.589624 238.119972 
L 401.058861 236.951839 
L 436.654637 235.915769 
L 459.13618 235.47255 
L 479.744261 235.279653 
L 500.352342 235.315439 
L 505.972727 235.364986 
L 505.972727 235.364986 
" style="fill:none;stroke:#ff7f0e;stroke-linecap:square;stroke-width:3;"/>
   </g>
   <g id="line2d_22">
    <path clip-path="url(#pa05a8ebe77)" d="M 135.027273 235.909332 
L 159.382277 235.976818 
L 185.610744 236.273345 
L 219.333058 236.899758 
L 283.030762 238.138036 
L 309.259229 238.400745 
L 333.614233 238.432095 
L 359.8427 238.230736 
L 389.81809 237.753985 
L 485.364646 236.018751 
L 505.972727 235.909332 
L 505.972727 235.909332 
" style="fill:none;stroke:#2ca02c;stroke-linecap:square;stroke-width:3;"/>
   </g>
   <g id="line2d_23">
    <path clip-path="url(#pa05a8ebe77)" d="M 135.027273 236.42503 
L 166.876125 236.332832 
L 198.724977 236.480014 
L 236.194215 236.89938 
L 318.626538 237.913563 
L 350.47539 238.019692 
L 380.450781 237.900205 
L 416.046556 237.526476 
L 505.972727 236.42503 
L 505.972727 236.42503 
" style="fill:none;stroke:#d62728;stroke-linecap:square;stroke-width:3;"/>
   </g>
   <g id="line2d_24">
    <path clip-path="url(#pa05a8ebe77)" d="M 135.027273 236.816068 
L 176.243434 236.622919 
L 213.712672 236.671662 
L 256.802296 236.965215 
L 352.348852 237.705696 
L 389.81809 237.712399 
L 431.034252 237.480766 
L 505.972727 236.816068 
L 505.972727 236.816068 
" style="fill:none;stroke:#9467bd;stroke-linecap:square;stroke-width:3;"/>
   </g>
   <g id="line2d_25">
    <path clip-path="url(#pa05a8ebe77)" d="M 135.027273 237.067061 
L 194.978053 236.814791 
L 241.814601 236.854004 
L 299.891919 237.155442 
L 374.830395 237.525688 
L 421.666942 237.513826 
L 475.997337 237.254469 
L 505.972727 237.067061 
L 505.972727 237.067061 
" style="fill:none;stroke:#8c564b;stroke-linecap:square;stroke-width:3;"/>
   </g>
   <g id="line2d_26">
    <path clip-path="url(#pa05a8ebe77)" d="M 135.027273 237.201622 
L 224.953444 236.930196 
L 281.1573 237.002538 
L 446.021947 237.399167 
L 505.972727 237.201622 
L 505.972727 237.201622 
" style="fill:none;stroke:#e377c2;stroke-linecap:square;stroke-width:3;"/>
   </g>
   <g id="line2d_27">
    <path clip-path="url(#pa05a8ebe77)" d="M 135.027273 237.255477 
L 275.536915 237.0181 
L 359.8427 237.202197 
L 449.768871 237.339671 
L 505.972727 237.255477 
L 505.972727 237.255477 
" style="fill:none;stroke:#7f7f7f;stroke-linecap:square;stroke-width:3;"/>
   </g>
   <g id="line2d_28">
    <path clip-path="url(#pa05a8ebe77)" d="M 135.027273 237.261949 
L 344.855005 237.123746 
L 498.47888 237.269844 
L 505.972727 237.261949 
L 505.972727 237.261949 
" style="fill:none;stroke:#bcbd22;stroke-linecap:square;stroke-width:3;"/>
   </g>
   <g id="line2d_29">
    <path clip-path="url(#pa05a8ebe77)" d="M 135.027273 237.246064 
L 466.630028 237.24287 
L 505.972727 237.246064 
L 505.972727 237.246064 
" style="fill:none;stroke:#17becf;stroke-linecap:square;stroke-width:3;"/>
   </g>
   <g id="line2d_30">
    <path clip-path="url(#pa05a8ebe77)" d="M 135.027273 237.223743 
L 309.259229 237.129601 
L 457.262718 237.203522 
L 505.972727 237.223743 
L 505.972727 237.223743 
" style="fill:none;stroke:#1f77b4;stroke-linecap:square;stroke-width:3;"/>
   </g>
   <g id="line2d_31">
    <path clip-path="url(#pa05a8ebe77)" d="M 135.027273 237.203423 
L 329.867309 237.145582 
L 505.972727 237.203423 
L 505.972727 237.203423 
" style="fill:none;stroke:#ff7f0e;stroke-linecap:square;stroke-width:3;"/>
   </g>
   <g id="line2d_32">
    <path clip-path="url(#pa05a8ebe77)" d="M 135.027273 237.188401 
L 505.972727 237.188401 
L 505.972727 237.188401 
" style="fill:none;stroke:#2ca02c;stroke-linecap:square;stroke-width:3;"/>
   </g>
   <g id="line2d_33">
    <path clip-path="url(#pa05a8ebe77)" d="M 135.027273 237.178984 
L 505.972727 237.178984 
L 505.972727 237.178984 
" style="fill:none;stroke:#d62728;stroke-linecap:square;stroke-width:3;"/>
   </g>
   <g id="line2d_34">
    <path clip-path="url(#pa05a8ebe77)" d="M 135.027273 237.174091 
L 505.972727 237.174091 
L 505.972727 237.174091 
" style="fill:none;stroke:#9467bd;stroke-linecap:square;stroke-width:3;"/>
   </g>
   <g id="line2d_35">
    <path clip-path="url(#pa05a8ebe77)" d="M 135.027273 237.17226 
L 505.972727 237.17226 
L 505.972727 237.17226 
" style="fill:none;stroke:#8c564b;stroke-linecap:square;stroke-width:3;"/>
   </g>
   <g id="patch_3">
    <path d="M 116.48 422.1475 
L 116.48 52.20375 
" style="fill:none;stroke:#000000;stroke-linecap:square;stroke-linejoin:miter;stroke-width:0.8;"/>
   </g>
   <g id="patch_4">
    <path d="M 524.52 422.1475 
L 524.52 52.20375 
" style="fill:none;stroke:#000000;stroke-linecap:square;stroke-linejoin:miter;stroke-width:0.8;"/>
   </g>
   <g id="patch_5">
    <path d="M 116.48 422.1475 
L 524.52 422.1475 
" style="fill:none;stroke:#000000;stroke-linecap:square;stroke-linejoin:miter;stroke-width:0.8;"/>
   </g>
   <g id="patch_6">
    <path d="M 116.48 52.20375 
L 524.52 52.20375 
" style="fill:none;stroke:#000000;stroke-linecap:square;stroke-linejoin:miter;stroke-width:0.8;"/>
   </g>
   <g id="text_12">
    <!-- High Fidelity Model -->
    <defs>
     <path d="M 3.328125 0 
L 3.328125 3.078125 
L 5.71875 3.078125 
Q 11.140625 3.078125 12.375 3.984375 
Q 13.625 4.890625 13.625 7.8125 
L 13.625 60.5 
Q 13.625 63.375 12.34375 64.28125 
Q 11.078125 65.1875 5.71875 65.1875 
L 3.328125 65.1875 
L 3.328125 68.3125 
Q 6.84375 68.015625 18.109375 68.015625 
Q 29.296875 68.015625 32.8125 68.3125 
L 32.8125 65.1875 
L 30.421875 65.1875 
Q 25 65.1875 23.75 64.28125 
Q 22.515625 63.375 22.515625 60.5 
L 22.515625 37.109375 
L 52.390625 37.109375 
L 52.390625 60.5 
Q 52.390625 63.375 51.140625 64.28125 
Q 49.90625 65.1875 44.484375 65.1875 
L 42.09375 65.1875 
L 42.09375 68.3125 
Q 45.609375 68.015625 56.890625 68.015625 
Q 68.0625 68.015625 71.578125 68.3125 
L 71.578125 65.1875 
L 69.1875 65.1875 
Q 63.765625 65.1875 62.515625 64.28125 
Q 61.28125 63.375 61.28125 60.5 
L 61.28125 7.8125 
Q 61.28125 4.9375 62.546875 4 
Q 63.8125 3.078125 69.1875 3.078125 
L 71.578125 3.078125 
L 71.578125 0 
Q 68.0625 0.296875 56.78125 0.296875 
Q 45.609375 0.296875 42.09375 0 
L 42.09375 3.078125 
L 44.484375 3.078125 
Q 49.90625 3.078125 51.140625 3.984375 
Q 52.390625 4.890625 52.390625 7.8125 
L 52.390625 33.984375 
L 22.515625 33.984375 
L 22.515625 7.8125 
Q 22.515625 4.9375 23.75 4 
Q 25 3.078125 30.421875 3.078125 
L 32.8125 3.078125 
L 32.8125 0 
Q 29.296875 0.296875 18.015625 0.296875 
Q 6.84375 0.296875 3.328125 0 
z
" id="CMUSerif-Roman-48"/>
     <path d="M 2.78125 -7.90625 
Q 2.78125 -4.6875 5.25 -1.90625 
Q 7.71875 0.875 12.015625 2.09375 
Q 7.625 4.890625 7.625 10.984375 
Q 7.625 15.671875 10.6875 19.28125 
Q 6 23.1875 6 29.59375 
Q 6 35.5 10.6875 39.84375 
Q 15.375 44.1875 22.21875 44.1875 
Q 28.21875 44.1875 32.8125 40.578125 
Q 37.59375 45.265625 43.40625 45.3125 
Q 46 45.3125 47.234375 43.703125 
Q 48.484375 42.09375 48.484375 40.375 
Q 48.484375 38.875 47.53125 38.140625 
Q 46.578125 37.40625 45.609375 37.40625 
Q 44.390625 37.40625 43.53125 38.203125 
Q 42.671875 39.015625 42.671875 40.28125 
Q 42.671875 42.390625 44.28125 43.015625 
Q 44 43.109375 43.3125 43.109375 
Q 38.421875 43.109375 34.28125 39.203125 
Q 38.375 35.40625 38.375 29.484375 
Q 38.375 23.578125 33.6875 19.234375 
Q 29 14.890625 22.21875 14.890625 
Q 16.609375 14.890625 12.3125 18.015625 
Q 10.59375 16.015625 10.59375 13.28125 
Q 10.59375 10.796875 12.109375 8.84375 
Q 13.625 6.890625 15.921875 6.59375 
Q 16.609375 6.5 23.390625 6.5 
Q 27.390625 6.5 29.578125 6.390625 
Q 31.78125 6.296875 34.9375 5.640625 
Q 38.09375 4.984375 40.578125 3.71875 
Q 47.078125 0.09375 47.125 -7.71875 
Q 47.125 -13.421875 40.546875 -17.015625 
Q 33.984375 -20.609375 24.90625 -20.609375 
Q 15.71875 -20.609375 9.25 -16.96875 
Q 2.78125 -13.328125 2.78125 -7.90625 
z
M 8.015625 -7.90625 
Q 8.015625 -12.015625 12.84375 -15.15625 
Q 17.671875 -18.3125 25 -18.3125 
Q 32.171875 -18.3125 37.03125 -15.203125 
Q 41.890625 -12.109375 41.890625 -7.90625 
Q 41.890625 -4.9375 40.1875 -3.03125 
Q 38.484375 -1.125 34.984375 -0.359375 
Q 31.5 0.390625 29.046875 0.53125 
Q 26.609375 0.6875 22.125 0.6875 
L 16.21875 0.6875 
Q 12.796875 0.484375 10.40625 -2 
Q 8.015625 -4.5 8.015625 -7.90625 
z
M 13.484375 29.5 
Q 13.484375 17.1875 22.21875 17.1875 
Q 26.609375 17.1875 29.296875 21.1875 
Q 30.90625 23.875 30.90625 29.59375 
Q 30.90625 41.890625 22.21875 41.890625 
Q 17.828125 41.890625 15.09375 37.890625 
Q 13.484375 35.203125 13.484375 29.5 
z
" id="CMUSerif-Roman-67"/>
     <path d="M 3.21875 0 
L 3.21875 3.078125 
Q 8.546875 3.078125 9.765625 3.734375 
Q 10.984375 4.390625 10.984375 7.625 
L 10.984375 59.625 
Q 10.984375 63.328125 9.6875 64.25 
Q 8.40625 65.1875 3.21875 65.1875 
L 3.21875 68.3125 
L 17.578125 69.390625 
L 17.578125 34.625 
L 17.671875 34.625 
Q 19.28125 38.234375 22.890625 41.203125 
Q 26.515625 44.1875 32.078125 44.1875 
Q 39.59375 44.1875 42.578125 40.484375 
Q 44.78125 37.984375 45.234375 35.203125 
Q 45.703125 32.421875 45.703125 25.203125 
L 45.703125 6.109375 
Q 45.796875 4 47.40625 3.53125 
Q 49.03125 3.078125 53.515625 3.078125 
L 53.515625 0 
Q 43.3125 0.296875 42.28125 0.296875 
Q 41.5 0.296875 31 0 
L 31 3.078125 
Q 36.328125 3.078125 37.5625 3.734375 
Q 38.8125 4.390625 38.8125 7.625 
L 38.8125 30.90625 
Q 38.8125 35.984375 37.25 38.984375 
Q 35.6875 42 31.390625 42 
Q 26.21875 42 22.0625 37.640625 
Q 17.921875 33.296875 17.921875 25.984375 
L 17.921875 7.625 
Q 17.921875 4.390625 19.15625 3.734375 
Q 20.40625 3.078125 25.6875 3.078125 
L 25.6875 0 
Q 15.484375 0.296875 14.5 0.296875 
Q 13.71875 0.296875 3.21875 0 
z
" id="CMUSerif-Roman-68"/>
     <path id="CMUSerif-Roman-20"/>
     <path d="M 3.328125 0 
L 3.328125 3.078125 
L 5.71875 3.078125 
Q 11.140625 3.078125 12.375 3.984375 
Q 13.625 4.890625 13.625 7.8125 
L 13.625 60.203125 
Q 13.625 63.09375 12.34375 63.984375 
Q 11.078125 64.890625 5.71875 64.890625 
L 3.328125 64.890625 
L 3.328125 68.015625 
L 58.203125 68.015625 
L 60.984375 45.515625 
L 58.5 45.515625 
Q 57.8125 51.21875 56.90625 54.46875 
Q 56 57.71875 53.953125 60.296875 
Q 51.90625 62.890625 48.453125 63.890625 
Q 45.015625 64.890625 39.40625 64.890625 
L 27.390625 64.890625 
Q 23.96875 64.890625 23.234375 64.1875 
Q 22.515625 63.484375 22.515625 60.890625 
L 22.515625 35.59375 
L 31.109375 35.59375 
Q 37.890625 35.59375 39.796875 38.03125 
Q 41.703125 40.484375 41.703125 47.3125 
L 44.1875 47.3125 
L 44.1875 20.796875 
L 41.703125 20.796875 
Q 41.703125 27.6875 39.796875 30.09375 
Q 37.890625 32.515625 31.109375 32.515625 
L 22.515625 32.515625 
L 22.515625 7.90625 
Q 22.515625 5.8125 22.84375 5 
Q 23.1875 4.203125 25.28125 3.640625 
Q 27.390625 3.078125 31.984375 3.078125 
L 35.296875 3.078125 
L 35.296875 0 
Q 31.6875 0.296875 18.5 0.296875 
Q 6.84375 0.296875 3.328125 0 
z
" id="CMUSerif-Roman-46"/>
     <path d="M 1.90625 -12.40625 
Q 1.90625 -10.296875 3.140625 -9.203125 
Q 4.390625 -8.109375 6.109375 -8.109375 
Q 7.90625 -8.109375 9.09375 -9.25 
Q 10.296875 -10.40625 10.296875 -12.3125 
Q 10.296875 -16.015625 6.390625 -16.5 
Q 8.296875 -18.3125 11.078125 -18.3125 
Q 14.0625 -18.3125 16.46875 -16.109375 
Q 18.890625 -13.921875 19.9375 -11.8125 
Q 21 -9.71875 22.515625 -5.90625 
Q 23.921875 -2.9375 25 0 
L 10.015625 36.53125 
Q 9.03125 38.921875 7.515625 39.453125 
Q 6 39.984375 1.90625 39.984375 
L 1.90625 43.109375 
Q 6.390625 42.828125 11.625 42.828125 
Q 14.703125 42.828125 22.515625 43.109375 
L 22.515625 39.984375 
Q 16.890625 39.984375 16.890625 37.40625 
Q 16.890625 37.109375 17.484375 35.59375 
L 28.609375 8.6875 
L 38.71875 33.296875 
Q 39.3125 34.71875 39.3125 35.6875 
Q 39.3125 39.796875 34.625 39.984375 
L 34.625 43.109375 
Q 41.21875 42.828125 43.3125 42.828125 
Q 47.40625 42.828125 50.78125 43.109375 
L 50.78125 39.984375 
Q 44.09375 39.984375 41.5 33.59375 
L 23.875 -9.078125 
Q 19.09375 -20.453125 11.078125 -20.515625 
Q 7.28125 -20.515625 4.59375 -18.171875 
Q 1.90625 -15.828125 1.90625 -12.40625 
z
" id="CMUSerif-Roman-79"/>
     <path d="M 3.71875 0 
L 3.71875 3.078125 
Q 7.328125 3.078125 9.625 3.78125 
Q 11.921875 4.5 12.765625 5.828125 
Q 13.625 7.171875 13.8125 8.078125 
Q 14.015625 8.984375 14.015625 10.5 
L 14.015625 60.5 
Q 14.015625 63.375 12.765625 64.28125 
Q 11.53125 65.1875 6.109375 65.1875 
L 3.71875 65.1875 
L 3.71875 68.3125 
L 20.609375 68.3125 
Q 22.40625 68.3125 22.890625 67.984375 
Q 23.390625 67.671875 24.125 66.109375 
L 45.796875 10.109375 
L 67.671875 66.40625 
Q 68.171875 67.828125 68.625 68.0625 
Q 69.09375 68.3125 71 68.3125 
L 87.890625 68.3125 
L 87.890625 65.1875 
L 85.5 65.1875 
Q 80.078125 65.1875 78.828125 64.28125 
Q 77.59375 63.375 77.59375 60.5 
L 77.59375 7.8125 
Q 77.59375 4.9375 78.828125 4 
Q 80.078125 3.078125 85.5 3.078125 
L 87.890625 3.078125 
L 87.890625 0 
Q 84.1875 0.296875 73.578125 0.296875 
Q 62.890625 0.296875 59.1875 0 
L 59.1875 3.078125 
L 61.625 3.078125 
Q 67.046875 3.078125 68.265625 3.984375 
Q 69.484375 4.890625 69.484375 7.8125 
L 69.484375 65.1875 
L 69.390625 65.1875 
L 44.828125 1.90625 
Q 44.140625 0 43.015625 0 
Q 41.796875 0 41.015625 2.203125 
L 16.890625 64.40625 
L 16.796875 64.40625 
L 16.796875 10.5 
Q 16.796875 8.984375 16.984375 8.078125 
Q 17.1875 7.171875 18.03125 5.828125 
Q 18.890625 4.5 21.1875 3.78125 
Q 23.484375 3.078125 27.09375 3.078125 
L 27.09375 0 
Q 16.609375 0.296875 15.40625 0.296875 
Q 14.203125 0.296875 3.71875 0 
z
" id="CMUSerif-Roman-4d"/>
    </defs>
    <g transform="translate(193.303 46.20375)scale(0.288 -0.288)">
     <use xlink:href="#CMUSerif-Roman-48"/>
     <use x="75" xlink:href="#CMUSerif-Roman-69"/>
     <use x="102.685547" xlink:href="#CMUSerif-Roman-67"/>
     <use x="152.685547" xlink:href="#CMUSerif-Roman-68"/>
     <use x="208.154297" xlink:href="#CMUSerif-Roman-20"/>
     <use x="241.40625" xlink:href="#CMUSerif-Roman-46"/>
     <use x="306.591797" xlink:href="#CMUSerif-Roman-69"/>
     <use x="334.277344" xlink:href="#CMUSerif-Roman-64"/>
     <use x="389.746094" xlink:href="#CMUSerif-Roman-65"/>
     <use x="434.130859" xlink:href="#CMUSerif-Roman-6c"/>
     <use x="461.816406" xlink:href="#CMUSerif-Roman-69"/>
     <use x="489.501953" xlink:href="#CMUSerif-Roman-74"/>
     <use x="528.271484" xlink:href="#CMUSerif-Roman-79"/>
     <use x="580.957031" xlink:href="#CMUSerif-Roman-20"/>
     <use x="614.208984" xlink:href="#CMUSerif-Roman-4d"/>
     <use x="705.761719" xlink:href="#CMUSerif-Roman-6f"/>
     <use x="755.761719" xlink:href="#CMUSerif-Roman-64"/>
     <use x="811.230469" xlink:href="#CMUSerif-Roman-65"/>
     <use x="855.615234" xlink:href="#CMUSerif-Roman-6c"/>
    </g>
   </g>
  </g>
  <g id="axes_2">
   <g id="patch_7">
    <path d="M 643.52 422.1475 
L 1051.56 422.1475 
L 1051.56 52.20375 
L 643.52 52.20375 
z
" style="fill:#ffffff;"/>
   </g>
   <g id="matplotlib.axis_3">
    <g id="xtick_5">
     <g id="line2d_36">
      <g>
       <use style="stroke:#000000;stroke-width:0.8;" x="662.067273" xlink:href="#me59b776d14" y="422.1475"/>
      </g>
     </g>
     <g id="text_13">
      <!-- 0 -->
      <g transform="translate(654.432273 447.38375)scale(0.24 -0.24)">
       <use xlink:href="#DejaVuSans-30"/>
      </g>
     </g>
    </g>
    <g id="xtick_6">
     <g id="line2d_37">
      <g>
       <use style="stroke:#000000;stroke-width:0.8;" x="780.142878" xlink:href="#me59b776d14" y="422.1475"/>
      </g>
     </g>
     <g id="text_14">
      <!-- 2 -->
      <g transform="translate(772.507878 447.38375)scale(0.24 -0.24)">
       <use xlink:href="#DejaVuSans-32"/>
      </g>
     </g>
    </g>
    <g id="xtick_7">
     <g id="line2d_38">
      <g>
       <use style="stroke:#000000;stroke-width:0.8;" x="898.218484" xlink:href="#me59b776d14" y="422.1475"/>
      </g>
     </g>
     <g id="text_15">
      <!-- 4 -->
      <g transform="translate(890.583484 447.38375)scale(0.24 -0.24)">
       <use xlink:href="#DejaVuSans-34"/>
      </g>
     </g>
    </g>
    <g id="xtick_8">
     <g id="line2d_39">
      <g>
       <use style="stroke:#000000;stroke-width:0.8;" x="1016.294089" xlink:href="#me59b776d14" y="422.1475"/>
      </g>
     </g>
     <g id="text_16">
      <!-- 6 -->
      <g transform="translate(1008.659089 447.38375)scale(0.24 -0.24)">
       <use xlink:href="#DejaVuSans-36"/>
      </g>
     </g>
    </g>
    <g id="text_17">
     <!-- Position -->
     <g transform="translate(804.7075 473.02875)scale(0.24 -0.24)">
      <use xlink:href="#CMUSerif-Roman-50"/>
      <use x="67.96875" xlink:href="#CMUSerif-Roman-6f"/>
      <use x="117.96875" xlink:href="#CMUSerif-Roman-73"/>
      <use x="157.324219" xlink:href="#CMUSerif-Roman-69"/>
      <use x="185.009766" xlink:href="#CMUSerif-Roman-74"/>
      <use x="223.779297" xlink:href="#CMUSerif-Roman-69"/>
      <use x="251.464844" xlink:href="#CMUSerif-Roman-6f"/>
      <use x="301.464844" xlink:href="#CMUSerif-Roman-6e"/>
     </g>
    </g>
   </g>
   <g id="matplotlib.axis_4">
    <g id="ytick_6">
     <g id="line2d_40">
      <g>
       <use style="stroke:#000000;stroke-width:0.8;" x="643.52" xlink:href="#m9daceed0a0" y="405.353044"/>
      </g>
     </g>
     <g id="text_18">
      <!-- −1.0 -->
      <g transform="translate(578.24125 414.471169)scale(0.24 -0.24)">
       <use xlink:href="#DejaVuSans-2212"/>
       <use x="83.789062" xlink:href="#DejaVuSans-31"/>
       <use x="147.412109" xlink:href="#DejaVuSans-2e"/>
       <use x="179.199219" xlink:href="#DejaVuSans-30"/>
      </g>
     </g>
    </g>
    <g id="ytick_7">
     <g id="line2d_41">
      <g>
       <use style="stroke:#000000;stroke-width:0.8;" x="643.52" xlink:href="#m9daceed0a0" y="321.264334"/>
      </g>
     </g>
     <g id="text_19">
      <!-- −0.5 -->
      <g transform="translate(578.24125 330.382459)scale(0.24 -0.24)">
       <use xlink:href="#DejaVuSans-2212"/>
       <use x="83.789062" xlink:href="#DejaVuSans-30"/>
       <use x="147.412109" xlink:href="#DejaVuSans-2e"/>
       <use x="179.199219" xlink:href="#DejaVuSans-35"/>
      </g>
     </g>
    </g>
    <g id="ytick_8">
     <g id="line2d_42">
      <g>
       <use style="stroke:#000000;stroke-width:0.8;" x="643.52" xlink:href="#m9daceed0a0" y="237.175625"/>
      </g>
     </g>
     <g id="text_20">
      <!-- 0.0 -->
      <g transform="translate(598.3525 246.29375)scale(0.24 -0.24)">
       <use xlink:href="#DejaVuSans-30"/>
       <use x="63.623047" xlink:href="#DejaVuSans-2e"/>
       <use x="95.410156" xlink:href="#DejaVuSans-30"/>
      </g>
     </g>
    </g>
    <g id="ytick_9">
     <g id="line2d_43">
      <g>
       <use style="stroke:#000000;stroke-width:0.8;" x="643.52" xlink:href="#m9daceed0a0" y="153.086916"/>
      </g>
     </g>
     <g id="text_21">
      <!-- 0.5 -->
      <g transform="translate(598.3525 162.205041)scale(0.24 -0.24)">
       <use xlink:href="#DejaVuSans-30"/>
       <use x="63.623047" xlink:href="#DejaVuSans-2e"/>
       <use x="95.410156" xlink:href="#DejaVuSans-35"/>
      </g>
     </g>
    </g>
    <g id="ytick_10">
     <g id="line2d_44">
      <g>
       <use style="stroke:#000000;stroke-width:0.8;" x="643.52" xlink:href="#m9daceed0a0" y="68.998206"/>
      </g>
     </g>
     <g id="text_22">
      <!-- 1.0 -->
      <g transform="translate(598.3525 78.116331)scale(0.24 -0.24)">
       <use xlink:href="#DejaVuSans-31"/>
       <use x="63.623047" xlink:href="#DejaVuSans-2e"/>
       <use x="95.410156" xlink:href="#DejaVuSans-30"/>
      </g>
     </g>
    </g>
    <g id="text_23">
     <!-- Amplitude -->
     <g transform="translate(569.5875 292.758125)rotate(-90)scale(0.24 -0.24)">
      <use xlink:href="#CMUSerif-Roman-41"/>
      <use x="75" xlink:href="#CMUSerif-Roman-6d"/>
      <use x="158.251953" xlink:href="#CMUSerif-Roman-70"/>
      <use x="213.720703" xlink:href="#CMUSerif-Roman-6c"/>
      <use x="241.40625" xlink:href="#CMUSerif-Roman-69"/>
      <use x="269.091797" xlink:href="#CMUSerif-Roman-74"/>
      <use x="307.861328" xlink:href="#CMUSerif-Roman-75"/>
      <use x="363.330078" xlink:href="#CMUSerif-Roman-64"/>
      <use x="418.798828" xlink:href="#CMUSerif-Roman-65"/>
     </g>
    </g>
   </g>
   <g id="line2d_45">
    <path clip-path="url(#pe14bd4341b)" d="M 662.067273 237.175625 
L 675.181506 200.124368 
L 682.675354 179.65556 
L 688.295739 164.893826 
L 693.916125 150.786687 
L 699.536511 137.4619 
L 703.283434 129.073264 
L 707.030358 121.119918 
L 710.777282 113.633888 
L 714.524206 106.645316 
L 718.271129 100.182344 
L 722.018053 94.270995 
L 725.764977 88.935073 
L 729.511901 84.196064 
L 733.258825 80.073049 
L 735.132287 78.247826 
L 737.005748 76.582631 
L 738.87921 75.079139 
L 740.752672 73.738864 
L 742.626134 72.563156 
L 744.499596 71.553199 
L 746.373058 70.71001 
L 748.24652 70.034437 
L 750.119982 69.527162 
L 751.993444 69.188694 
L 753.866905 69.019375 
L 755.740367 69.019375 
L 757.613829 69.188694 
L 759.487291 69.527162 
L 761.360753 70.034437 
L 763.234215 70.71001 
L 765.107677 71.553199 
L 766.981139 72.563156 
L 768.854601 73.738864 
L 770.728062 75.079139 
L 772.601524 76.582631 
L 774.474986 78.247826 
L 776.348448 80.073049 
L 780.095372 84.196064 
L 783.842296 88.935073 
L 787.589219 94.270995 
L 791.336143 100.182344 
L 795.083067 106.645316 
L 798.829991 113.633888 
L 802.576915 121.119918 
L 806.323838 129.073264 
L 810.070762 137.4619 
L 813.817686 146.252048 
L 819.438072 160.112271 
L 825.058457 174.670393 
L 830.678843 189.794571 
L 838.172691 210.603358 
L 866.274619 289.652605 
L 871.895005 304.603088 
L 877.51539 318.942937 
L 883.135776 332.542289 
L 886.8827 341.136008 
L 890.629624 349.311114 
L 894.376547 357.034691 
L 898.123471 364.275638 
L 901.870395 371.004797 
L 905.617319 377.195074 
L 909.364242 382.821542 
L 913.111166 387.861545 
L 916.85809 392.294789 
L 920.605014 396.103424 
L 922.478476 397.768619 
L 924.351938 399.272111 
L 926.225399 400.612386 
L 928.098861 401.788094 
L 929.972323 402.798051 
L 931.845785 403.64124 
L 933.719247 404.316813 
L 935.592709 404.824088 
L 937.466171 405.162556 
L 939.339633 405.331875 
L 941.213095 405.331875 
L 943.086556 405.162556 
L 944.960018 404.824088 
L 946.83348 404.316813 
L 948.706942 403.64124 
L 950.580404 402.798051 
L 952.453866 401.788094 
L 954.327328 400.612386 
L 956.20079 399.272111 
L 958.074252 397.768619 
L 959.947713 396.103424 
L 961.821175 394.278201 
L 965.568099 390.155186 
L 969.315023 385.416177 
L 973.061947 380.080255 
L 976.808871 374.168906 
L 980.555794 367.705934 
L 984.302718 360.717362 
L 988.049642 353.231332 
L 991.796566 345.277986 
L 995.543489 336.88935 
L 999.290413 328.099202 
L 1004.910799 314.238979 
L 1010.531185 299.680857 
L 1016.15157 284.556679 
L 1023.645418 263.747892 
L 1033.012727 237.175625 
L 1033.012727 237.175625 
" style="fill:none;stroke:#1f77b4;stroke-linecap:square;stroke-width:3;"/>
   </g>
   <g id="line2d_46">
    <path clip-path="url(#pe14bd4341b)" d="M 662.067273 280.11663 
L 669.56112 266.542213 
L 678.92843 248.936084 
L 699.536511 209.79569 
L 707.030358 196.140037 
L 712.650744 186.319955 
L 718.271129 176.960431 
L 723.891515 168.146224 
L 727.638439 162.612685 
L 731.385363 157.379384 
L 735.132287 152.467395 
L 738.87921 147.896496 
L 742.626134 143.685093 
L 746.373058 139.850142 
L 750.119982 136.407088 
L 753.866905 133.369792 
L 757.613829 130.750486 
L 761.360753 128.559717 
L 765.107677 126.806305 
L 768.854601 125.497312 
L 772.601524 124.638008 
L 774.474986 124.378141 
L 776.348448 124.231853 
L 778.22191 124.199289 
L 780.095372 124.280482 
L 781.968834 124.475352 
L 783.842296 124.783701 
L 787.589219 125.739482 
L 791.336143 127.143978 
L 795.083067 128.991532 
L 798.829991 131.274705 
L 802.576915 133.984304 
L 806.323838 137.109417 
L 810.070762 140.637462 
L 813.817686 144.554233 
L 817.56461 148.843956 
L 821.311534 153.489361 
L 825.058457 158.47174 
L 828.805381 163.771032 
L 832.552305 169.365899 
L 838.172691 178.262816 
L 843.793076 187.693257 
L 849.413462 197.571818 
L 856.907309 211.285198 
L 866.274619 228.986201 
L 885.009238 264.55556 
L 892.503085 278.211213 
L 898.123471 288.031295 
L 903.743857 297.390819 
L 909.364242 306.205026 
L 913.111166 311.738565 
L 916.85809 316.971866 
L 920.605014 321.883855 
L 924.351938 326.454754 
L 928.098861 330.666157 
L 931.845785 334.501108 
L 935.592709 337.944162 
L 939.339633 340.981458 
L 943.086556 343.600764 
L 946.83348 345.791533 
L 950.580404 347.544945 
L 954.327328 348.853938 
L 958.074252 349.713242 
L 959.947713 349.973109 
L 961.821175 350.119397 
L 963.694637 350.151961 
L 965.568099 350.070768 
L 967.441561 349.875898 
L 969.315023 349.567549 
L 973.061947 348.611768 
L 976.808871 347.207272 
L 980.555794 345.359718 
L 984.302718 343.076545 
L 988.049642 340.366946 
L 991.796566 337.241833 
L 995.543489 333.713788 
L 999.290413 329.797017 
L 1003.037337 325.507294 
L 1006.784261 320.861889 
L 1010.531185 315.87951 
L 1014.278108 310.580218 
L 1018.025032 304.985351 
L 1023.645418 296.088434 
L 1029.265803 286.657993 
L 1033.012727 280.11663 
L 1033.012727 280.11663 
" style="fill:none;stroke:#ff7f0e;stroke-linecap:square;stroke-width:3;"/>
   </g>
   <g id="line2d_47">
    <path clip-path="url(#pe14bd4341b)" d="M 662.067273 290.529899 
L 665.814197 287.067948 
L 671.434582 281.502916 
L 677.054968 275.536449 
L 682.675354 269.22258 
L 688.295739 262.618489 
L 695.789587 253.46526 
L 707.030358 239.291212 
L 722.018053 220.362839 
L 729.511901 211.228777 
L 735.132287 204.644405 
L 740.752672 198.35464 
L 746.373058 192.416445 
L 751.993444 186.883595 
L 755.740367 183.44513 
L 759.487291 180.223018 
L 763.234215 177.230235 
L 766.981139 174.47883 
L 770.728062 171.979884 
L 774.474986 169.743457 
L 778.22191 167.778556 
L 781.968834 166.093093 
L 785.715758 164.693854 
L 789.462681 163.586473 
L 793.209605 162.77541 
L 796.956529 162.263931 
L 800.703453 162.054094 
L 804.450376 162.146745 
L 808.1973 162.541511 
L 811.944224 163.236802 
L 815.691148 164.229819 
L 819.438072 165.516563 
L 823.184995 167.091852 
L 826.931919 168.949345 
L 830.678843 171.08156 
L 834.425767 173.479913 
L 838.172691 176.134746 
L 841.919614 179.035369 
L 845.666538 182.170102 
L 849.413462 185.526323 
L 855.033848 190.946151 
L 860.654233 196.784641 
L 866.274619 202.988918 
L 871.895005 209.502794 
L 879.388852 218.567267 
L 888.756162 230.301325 
L 909.364242 256.303122 
L 916.85809 265.346366 
L 922.478476 271.83904 
L 928.098861 278.017797 
L 933.719247 283.826681 
L 939.339633 289.213086 
L 943.086556 292.545052 
L 946.83348 295.654065 
L 950.580404 298.527605 
L 954.327328 301.154103 
L 958.074252 303.522983 
L 961.821175 305.624704 
L 965.568099 307.450806 
L 969.315023 308.993934 
L 973.061947 310.247875 
L 976.808871 311.20758 
L 980.555794 311.869185 
L 984.302718 312.230024 
L 988.049642 312.288647 
L 991.796566 312.044815 
L 995.543489 311.499512 
L 999.290413 310.654933 
L 1003.037337 309.514478 
L 1006.784261 308.082741 
L 1010.531185 306.365486 
L 1014.278108 304.369627 
L 1018.025032 302.103202 
L 1021.771956 299.575336 
L 1025.51888 296.796209 
L 1029.265803 293.777011 
L 1033.012727 290.529899 
L 1033.012727 290.529899 
" style="fill:none;stroke:#2ca02c;stroke-linecap:square;stroke-width:3;"/>
   </g>
   <g id="line2d_48">
    <path clip-path="url(#pe14bd4341b)" d="M 662.067273 283.54757 
L 665.814197 282.275559 
L 669.56112 280.821947 
L 673.308044 279.192586 
L 677.054968 277.394038 
L 682.675354 274.39501 
L 688.295739 271.058918 
L 693.916125 267.415974 
L 699.536511 263.499169 
L 705.156896 259.343973 
L 712.650744 253.498191 
L 722.018053 245.83308 
L 753.866905 219.330031 
L 761.360753 213.566678 
L 766.981139 209.488601 
L 772.601524 205.661263 
L 778.22191 202.119324 
L 783.842296 198.89486 
L 789.462681 196.017072 
L 793.209605 194.304152 
L 796.956529 192.76386 
L 800.703453 191.402398 
L 804.450376 190.225249 
L 808.1973 189.237153 
L 811.944224 188.442088 
L 815.691148 187.843255 
L 819.438072 187.443067 
L 823.184995 187.243134 
L 826.931919 187.244262 
L 830.678843 187.446445 
L 834.425767 187.848871 
L 838.172691 188.449918 
L 841.919614 189.247166 
L 845.666538 190.237405 
L 849.413462 191.416648 
L 853.160386 192.780146 
L 856.907309 194.322409 
L 860.654233 196.037227 
L 866.274619 198.917706 
L 871.895005 202.144654 
L 877.51539 205.688849 
L 883.135776 209.518192 
L 888.756162 213.598006 
L 896.250009 219.363233 
L 903.743857 225.415067 
L 914.984628 234.816322 
L 931.845785 248.970723 
L 939.339633 255.021219 
L 946.83348 260.784572 
L 952.453866 264.862649 
L 958.074252 268.689987 
L 963.694637 272.231926 
L 969.315023 275.45639 
L 974.935409 278.334178 
L 978.682332 280.047098 
L 982.429256 281.58739 
L 986.17618 282.948852 
L 989.923104 284.126001 
L 993.670028 285.114097 
L 997.416951 285.909162 
L 1001.163875 286.507995 
L 1004.910799 286.908183 
L 1008.657723 287.108116 
L 1012.404646 287.106988 
L 1016.15157 286.904805 
L 1019.898494 286.502379 
L 1023.645418 285.901332 
L 1027.392342 285.104084 
L 1031.139265 284.113845 
L 1033.012727 283.54757 
L 1033.012727 283.54757 
" style="fill:none;stroke:#d62728;stroke-linecap:square;stroke-width:3;"/>
   </g>
   <g id="line2d_49">
    <path clip-path="url(#pe14bd4341b)" d="M 662.067273 270.389589 
L 667.687658 270.298318 
L 673.308044 269.907082 
L 678.92843 269.219426 
L 684.548815 268.241575 
L 690.169201 266.982387 
L 695.789587 265.453264 
L 701.409972 263.668055 
L 707.030358 261.642926 
L 712.650744 259.396217 
L 718.271129 256.948275 
L 725.764977 253.409877 
L 733.258825 249.610264 
L 742.626134 244.586875 
L 757.613829 236.216529 
L 772.601524 227.907665 
L 781.968834 222.983714 
L 789.462681 219.295597 
L 796.956529 215.895175 
L 802.576915 213.566773 
L 808.1973 211.452176 
L 813.817686 209.570535 
L 819.438072 207.93889 
L 825.058457 206.572017 
L 830.678843 205.482296 
L 836.299229 204.679594 
L 841.919614 204.171181 
L 847.54 203.961661 
L 853.160386 204.052932 
L 858.780771 204.444168 
L 864.401157 205.131824 
L 870.021543 206.109675 
L 875.641928 207.368863 
L 881.262314 208.897986 
L 886.8827 210.683195 
L 892.503085 212.708324 
L 898.123471 214.955033 
L 903.743857 217.402975 
L 911.237704 220.941373 
L 918.731552 224.740986 
L 928.098861 229.764375 
L 943.086556 238.134721 
L 958.074252 246.443585 
L 967.441561 251.367536 
L 974.935409 255.055653 
L 982.429256 258.456075 
L 988.049642 260.784477 
L 993.670028 262.899074 
L 999.290413 264.780715 
L 1004.910799 266.41236 
L 1010.531185 267.779233 
L 1016.15157 268.868954 
L 1021.771956 269.671656 
L 1027.392342 270.180069 
L 1033.012727 270.389589 
L 1033.012727 270.389589 
" style="fill:none;stroke:#9467bd;stroke-linecap:square;stroke-width:3;"/>
   </g>
   <g id="line2d_50">
    <path clip-path="url(#pe14bd4341b)" d="M 662.067273 257.358356 
L 667.687658 258.120502 
L 673.308044 258.692968 
L 678.92843 259.07057 
L 684.548815 259.249888 
L 690.169201 259.229298 
L 695.789587 259.008986 
L 701.409972 258.590948 
L 707.030358 257.97897 
L 712.650744 257.178593 
L 718.271129 256.197067 
L 725.764977 254.622165 
L 733.258825 252.766543 
L 740.752672 250.660057 
L 748.24652 248.336601 
L 757.613829 245.184406 
L 768.854601 241.143538 
L 804.450376 228.121262 
L 813.817686 225.051399 
L 821.311534 222.811352 
L 828.805381 220.802432 
L 836.299229 219.056963 
L 843.793076 217.60303 
L 849.413462 216.718161 
L 855.033848 216.018558 
L 860.654233 215.510557 
L 866.274619 215.198758 
L 871.895005 215.085985 
L 877.51539 215.173259 
L 883.135776 215.45979 
L 888.756162 215.942983 
L 894.376547 216.618462 
L 899.996933 217.48011 
L 905.617319 218.520124 
L 913.111166 220.167765 
L 920.605014 222.089069 
L 928.098861 224.253122 
L 935.592709 226.625102 
L 944.960018 229.824063 
L 958.074252 234.59395 
L 984.302718 244.27369 
L 993.670028 247.489698 
L 1003.037337 250.446593 
L 1010.531185 252.575362 
L 1018.025032 254.456344 
L 1025.51888 256.059272 
L 1031.139265 257.063301 
L 1033.012727 257.358356 
L 1033.012727 257.358356 
" style="fill:none;stroke:#8c564b;stroke-linecap:square;stroke-width:3;"/>
   </g>
   <g id="line2d_51">
    <path clip-path="url(#pe14bd4341b)" d="M 662.067273 247.213143 
L 671.434582 248.781578 
L 678.92843 249.828049 
L 686.422277 250.670939 
L 693.916125 251.296683 
L 701.409972 251.695215 
L 708.90382 251.860121 
L 716.397668 251.788748 
L 723.891515 251.482244 
L 731.385363 250.945541 
L 738.87921 250.187276 
L 746.373058 249.219648 
L 753.866905 248.058227 
L 763.234215 246.362672 
L 772.601524 244.436318 
L 783.842296 241.888516 
L 798.829991 238.243348 
L 823.184995 232.280028 
L 834.425767 229.747495 
L 843.793076 227.838518 
L 853.160386 226.16411 
L 860.654233 225.021967 
L 868.148081 224.075381 
L 875.641928 223.339583 
L 883.135776 222.826411 
L 890.629624 222.544124 
L 898.123471 222.497263 
L 905.617319 222.686583 
L 913.111166 223.109037 
L 920.605014 223.757827 
L 928.098861 224.622515 
L 935.592709 225.689187 
L 944.960018 227.280133 
L 954.327328 229.119675 
L 965.568099 231.589833 
L 978.682332 234.720139 
L 1014.278108 243.365517 
L 1025.51888 245.774724 
L 1033.012727 247.213143 
L 1033.012727 247.213143 
" style="fill:none;stroke:#e377c2;stroke-linecap:square;stroke-width:3;"/>
   </g>
   <g id="line2d_52">
    <path clip-path="url(#pe14bd4341b)" d="M 662.067273 240.547294 
L 675.181506 242.48413 
L 686.422277 243.939937 
L 697.663049 245.151264 
L 707.030358 245.942058 
L 716.397668 246.512621 
L 725.764977 246.848617 
L 735.132287 246.941606 
L 744.499596 246.789252 
L 753.866905 246.395383 
L 763.234215 245.769892 
L 772.601524 244.928494 
L 783.842296 243.663934 
L 795.083067 242.164868 
L 808.1973 240.192235 
L 828.805381 236.83284 
L 851.286924 233.229311 
L 864.401157 231.357773 
L 875.641928 229.978013 
L 885.009238 229.025086 
L 894.376547 228.276919 
L 903.743857 227.752308 
L 913.111166 227.464431 
L 922.478476 227.420521 
L 931.845785 227.621681 
L 941.213095 228.062857 
L 950.580404 228.732966 
L 959.947713 229.615174 
L 971.188485 230.922244 
L 982.429256 232.455327 
L 997.416951 234.754316 
L 1033.012727 240.547294 
L 1033.012727 240.547294 
" style="fill:none;stroke:#7f7f7f;stroke-linecap:square;stroke-width:3;"/>
   </g>
   <g id="line2d_53">
    <path clip-path="url(#pe14bd4341b)" d="M 662.067273 236.867565 
L 692.042663 240.060843 
L 707.030358 241.429864 
L 720.144591 242.40665 
L 731.385363 243.040789 
L 742.626134 243.462946 
L 753.866905 243.657863 
L 765.107677 243.618495 
L 776.348448 243.346265 
L 787.589219 242.851012 
L 798.829991 242.150636 
L 811.944224 241.108419 
L 826.931919 239.684114 
L 849.413462 237.277681 
L 877.51539 234.290407 
L 892.503085 232.921386 
L 905.617319 231.9446 
L 916.85809 231.310461 
L 928.098861 230.888304 
L 939.339633 230.693387 
L 950.580404 230.732755 
L 961.821175 231.004985 
L 973.061947 231.500238 
L 984.302718 232.200614 
L 997.416951 233.242831 
L 1012.404646 234.667136 
L 1033.012727 236.867565 
L 1033.012727 236.867565 
" style="fill:none;stroke:#bcbd22;stroke-linecap:square;stroke-width:3;"/>
   </g>
   <g id="line2d_54">
    <path clip-path="url(#pe14bd4341b)" d="M 662.067273 235.307361 
L 686.422277 237.025378 
L 720.144591 239.382911 
L 737.005748 240.339436 
L 751.993444 240.976473 
L 765.107677 241.335038 
L 778.22191 241.489209 
L 791.336143 241.431408 
L 804.450376 241.164477 
L 819.438072 240.620608 
L 834.425767 239.855908 
L 853.160386 238.665266 
L 920.605014 234.106696 
L 935.592709 233.441779 
L 950.580404 233.016212 
L 963.694637 232.862041 
L 976.808871 232.919842 
L 989.923104 233.186773 
L 1004.910799 233.730642 
L 1019.898494 234.495342 
L 1033.012727 235.307361 
L 1033.012727 235.307361 
" style="fill:none;stroke:#17becf;stroke-linecap:square;stroke-width:3;"/>
   </g>
   <g id="line2d_55">
    <path clip-path="url(#pe14bd4341b)" d="M 662.067273 235.023198 
L 682.675354 235.803371 
L 712.650744 237.203176 
L 748.24652 238.826881 
L 768.854601 239.53102 
L 785.715758 239.898623 
L 802.576915 240.045625 
L 819.438072 239.960116 
L 836.299229 239.649024 
L 855.033848 239.070014 
L 877.51539 238.131998 
L 944.960018 235.109483 
L 963.694637 234.590149 
L 980.555794 234.342531 
L 997.416951 234.324433 
L 1014.278108 234.537321 
L 1031.139265 234.96395 
L 1033.012727 235.023198 
L 1033.012727 235.023198 
" style="fill:none;stroke:#1f77b4;stroke-linecap:square;stroke-width:3;"/>
   </g>
   <g id="line2d_56">
    <path clip-path="url(#pe14bd4341b)" d="M 662.067273 235.364986 
L 682.675354 235.681956 
L 707.030358 236.284423 
L 750.119982 237.637715 
L 781.968834 238.52398 
L 804.450376 238.930088 
L 825.058457 239.082347 
L 845.666538 239.004627 
L 866.274619 238.706302 
L 890.629624 238.119972 
L 928.098861 236.951839 
L 963.694637 235.915769 
L 986.17618 235.47255 
L 1006.784261 235.279653 
L 1027.392342 235.315439 
L 1033.012727 235.364986 
L 1033.012727 235.364986 
" style="fill:none;stroke:#ff7f0e;stroke-linecap:square;stroke-width:3;"/>
   </g>
   <g id="line2d_57">
    <path clip-path="url(#pe14bd4341b)" d="M 662.067273 235.909332 
L 686.422277 235.976818 
L 712.650744 236.273345 
L 746.373058 236.899758 
L 810.070762 238.138036 
L 836.299229 238.400745 
L 860.654233 238.432095 
L 886.8827 238.230736 
L 916.85809 237.753985 
L 1012.404646 236.018751 
L 1033.012727 235.909332 
L 1033.012727 235.909332 
" style="fill:none;stroke:#2ca02c;stroke-linecap:square;stroke-width:3;"/>
   </g>
   <g id="line2d_58">
    <path clip-path="url(#pe14bd4341b)" d="M 662.067273 236.42503 
L 693.916125 236.332832 
L 725.764977 236.480014 
L 763.234215 236.89938 
L 845.666538 237.913563 
L 877.51539 238.019692 
L 907.490781 237.900205 
L 943.086556 237.526476 
L 1033.012727 236.42503 
L 1033.012727 236.42503 
" style="fill:none;stroke:#d62728;stroke-linecap:square;stroke-width:3;"/>
   </g>
   <g id="line2d_59">
    <path clip-path="url(#pe14bd4341b)" d="M 662.067273 236.816068 
L 703.283434 236.622919 
L 740.752672 236.671662 
L 783.842296 236.965215 
L 879.388852 237.705696 
L 916.85809 237.712399 
L 958.074252 237.480766 
L 1033.012727 236.816068 
L 1033.012727 236.816068 
" style="fill:none;stroke:#9467bd;stroke-linecap:square;stroke-width:3;"/>
   </g>
   <g id="line2d_60">
    <path clip-path="url(#pe14bd4341b)" d="M 662.067273 237.067061 
L 722.018053 236.814791 
L 768.854601 236.854004 
L 826.931919 237.155442 
L 901.870395 237.525688 
L 948.706942 237.513826 
L 1003.037337 237.254469 
L 1033.012727 237.067061 
L 1033.012727 237.067061 
" style="fill:none;stroke:#8c564b;stroke-linecap:square;stroke-width:3;"/>
   </g>
   <g id="line2d_61">
    <path clip-path="url(#pe14bd4341b)" d="M 662.067273 237.201622 
L 751.993444 236.930196 
L 808.1973 237.002538 
L 973.061947 237.399167 
L 1033.012727 237.201622 
L 1033.012727 237.201622 
" style="fill:none;stroke:#e377c2;stroke-linecap:square;stroke-width:3;"/>
   </g>
   <g id="line2d_62">
    <path clip-path="url(#pe14bd4341b)" d="M 662.067273 237.255477 
L 802.576915 237.0181 
L 886.8827 237.202197 
L 976.808871 237.339671 
L 1033.012727 237.255477 
L 1033.012727 237.255477 
" style="fill:none;stroke:#7f7f7f;stroke-linecap:square;stroke-width:3;"/>
   </g>
   <g id="line2d_63">
    <path clip-path="url(#pe14bd4341b)" d="M 662.067273 237.261949 
L 871.895005 237.123746 
L 1025.51888 237.269844 
L 1033.012727 237.261949 
L 1033.012727 237.261949 
" style="fill:none;stroke:#bcbd22;stroke-linecap:square;stroke-width:3;"/>
   </g>
   <g id="line2d_64">
    <path clip-path="url(#pe14bd4341b)" d="M 662.067273 237.246064 
L 993.670028 237.24287 
L 1033.012727 237.246064 
L 1033.012727 237.246064 
" style="fill:none;stroke:#17becf;stroke-linecap:square;stroke-width:3;"/>
   </g>
   <g id="line2d_65">
    <path clip-path="url(#pe14bd4341b)" d="M 662.067273 237.223743 
L 836.299229 237.129601 
L 984.302718 237.203522 
L 1033.012727 237.223743 
L 1033.012727 237.223743 
" style="fill:none;stroke:#1f77b4;stroke-linecap:square;stroke-width:3;"/>
   </g>
   <g id="line2d_66">
    <path clip-path="url(#pe14bd4341b)" d="M 662.067273 237.203423 
L 856.907309 237.145582 
L 1033.012727 237.203423 
L 1033.012727 237.203423 
" style="fill:none;stroke:#ff7f0e;stroke-linecap:square;stroke-width:3;"/>
   </g>
   <g id="line2d_67">
    <path clip-path="url(#pe14bd4341b)" d="M 662.067273 237.188401 
L 1033.012727 237.188401 
L 1033.012727 237.188401 
" style="fill:none;stroke:#2ca02c;stroke-linecap:square;stroke-width:3;"/>
   </g>
   <g id="line2d_68">
    <path clip-path="url(#pe14bd4341b)" d="M 662.067273 237.178984 
L 1033.012727 237.178984 
L 1033.012727 237.178984 
" style="fill:none;stroke:#d62728;stroke-linecap:square;stroke-width:3;"/>
   </g>
   <g id="line2d_69">
    <path clip-path="url(#pe14bd4341b)" d="M 662.067273 237.174091 
L 1033.012727 237.174091 
L 1033.012727 237.174091 
" style="fill:none;stroke:#9467bd;stroke-linecap:square;stroke-width:3;"/>
   </g>
   <g id="line2d_70">
    <path clip-path="url(#pe14bd4341b)" d="M 662.067273 237.17226 
L 1033.012727 237.17226 
L 1033.012727 237.17226 
" style="fill:none;stroke:#8c564b;stroke-linecap:square;stroke-width:3;"/>
   </g>
   <g id="patch_8">
    <path d="M 643.52 422.1475 
L 643.52 52.20375 
" style="fill:none;stroke:#000000;stroke-linecap:square;stroke-linejoin:miter;stroke-width:0.8;"/>
   </g>
   <g id="patch_9">
    <path d="M 1051.56 422.1475 
L 1051.56 52.20375 
" style="fill:none;stroke:#000000;stroke-linecap:square;stroke-linejoin:miter;stroke-width:0.8;"/>
   </g>
   <g id="patch_10">
    <path d="M 643.52 422.1475 
L 1051.56 422.1475 
" style="fill:none;stroke:#000000;stroke-linecap:square;stroke-linejoin:miter;stroke-width:0.8;"/>
   </g>
   <g id="patch_11">
    <path d="M 643.52 52.20375 
L 1051.56 52.20375 
" style="fill:none;stroke:#000000;stroke-linecap:square;stroke-linejoin:miter;stroke-width:0.8;"/>
   </g>
   <g id="text_24">
    <!-- Reduced Order Model -->
    <defs>
     <path d="M 3.515625 0 
L 3.515625 3.078125 
L 5.90625 3.078125 
Q 11.328125 3.078125 12.5625 3.984375 
Q 13.8125 4.890625 13.8125 7.8125 
L 13.8125 60.5 
Q 13.8125 63.375 12.546875 64.28125 
Q 11.28125 65.1875 5.90625 65.1875 
L 3.515625 65.1875 
L 3.515625 68.3125 
L 34.90625 68.3125 
Q 45.796875 68.3125 53.390625 62.96875 
Q 60.984375 57.625 60.984375 50.296875 
Q 60.984375 44.671875 56.046875 40.28125 
Q 51.125 35.890625 43.5 33.984375 
Q 53.421875 30.5625 55.71875 22.40625 
L 56.984375 14.40625 
Q 57.375 11.53125 57.640625 10.0625 
Q 57.90625 8.59375 58.34375 6.59375 
Q 58.796875 4.59375 59.25 3.640625 
Q 59.71875 2.6875 60.390625 1.6875 
Q 61.078125 0.6875 61.984375 0.34375 
Q 62.890625 0 64.109375 0 
Q 66.40625 0 68.359375 2.046875 
Q 70.3125 4.109375 70.703125 8.890625 
Q 70.90625 10.5 71.921875 10.5 
Q 73.1875 10.5 73.1875 8.890625 
Q 73.1875 7.46875 72.796875 5.828125 
Q 72.40625 4.203125 71.453125 2.296875 
Q 70.515625 0.390625 68.453125 -0.90625 
Q 66.40625 -2.203125 63.71875 -2.203125 
Q 55.90625 -2.203125 51.125 2 
Q 49.125 3.8125 48.21875 6.15625 
Q 47.3125 8.5 47.15625 10.34375 
Q 47.015625 12.203125 47.015625 16.3125 
Q 47.015625 22.125 46.40625 24.65625 
Q 45.796875 27.203125 43.21875 29.6875 
Q 39.703125 33.109375 33.890625 33.109375 
L 22.40625 33.109375 
L 22.40625 7.8125 
Q 22.40625 4.9375 23.65625 4 
Q 24.90625 3.078125 30.328125 3.078125 
L 32.71875 3.078125 
L 32.71875 0 
Q 29.109375 0.296875 18.109375 0.296875 
Q 7.125 0.296875 3.515625 0 
z
M 22.40625 35.296875 
L 33.5 35.296875 
Q 38.8125 35.296875 42.40625 36.59375 
Q 46 37.890625 47.703125 40.234375 
Q 49.421875 42.578125 50.046875 44.9375 
Q 50.6875 47.3125 50.6875 50.296875 
Q 50.6875 53.8125 49.90625 56.4375 
Q 49.125 59.078125 47.40625 60.640625 
Q 45.703125 62.203125 43.984375 63.203125 
Q 42.28125 64.203125 39.640625 64.59375 
Q 37.015625 64.984375 35.203125 65.078125 
Q 33.40625 65.1875 30.515625 65.1875 
Q 25.640625 65.1875 24.609375 64.984375 
Q 23.484375 64.890625 23.046875 64.34375 
Q 22.609375 63.8125 22.5 63.203125 
Q 22.40625 62.59375 22.40625 61.1875 
z
" id="CMUSerif-Roman-52"/>
     <path d="M 16.109375 -1.125 
Q 3.421875 12.109375 3.421875 21.609375 
Q 3.421875 31.109375 9.671875 37.96875 
Q 15.921875 44.828125 25.09375 44.828125 
Q 31.203125 44.828125 35.78125 41.921875 
Q 40.375 39.015625 40.375 34.078125 
Q 40.375 31.890625 39.078125 30.640625 
Q 37.796875 29.390625 35.796875 29.390625 
Q 33.6875 29.390625 32.4375 30.6875 
Q 31.203125 31.984375 31.203125 33.984375 
Q 31.203125 34.859375 31.484375 35.734375 
Q 31.78125 36.625 32.875 37.546875 
Q 33.984375 38.484375 35.890625 38.625 
Q 32.328125 42.28125 25.390625 42.28125 
Q 25.296875 42.28125 25.203125 42.28125 
Q 20.125 42.28125 15.921875 37.5 
Q 11.71875 32.71875 11.71875 21.78125 
Q 11.71875 16.0625 13.109375 11.890625 
Q 14.5 7.71875 16.796875 5.5625 
Q 19.09375 3.421875 21.328125 2.421875 
Q 23.578125 1.421875 25.78125 1.421875 
Q 35.59375 1.421875 38.921875 11.921875 
Q 39.203125 12.890625 40.1875 12.890625 
Q 41.5 12.890625 41.5 11.921875 
Q 41.5 11.421875 41.109375 10.15625 
Q 40.71875 8.890625 39.5 6.890625 
Q 38.28125 4.890625 36.546875 3.15625 
Q 34.8125 1.421875 31.765625 0.140625 
Q 28.71875 -1.125 24.90625 -1.125 
Q 16.109375 -1.125 3.421875 12.109375 
z
" id="CMUSerif-Roman-63"/>
     <path d="M 5.609375 33.890625 
Q 5.609375 49.171875 15.40625 59.84375 
Q 25.203125 70.515625 38.8125 70.515625 
Q 52.546875 70.515625 62.328125 59.8125 
Q 72.125 49.125 72.125 33.890625 
Q 72.125 18.796875 62.296875 8.296875 
Q 52.484375 -2.203125 38.8125 -2.203125 
Q 25.34375 -2.203125 15.46875 8.25 
Q 5.609375 18.703125 5.609375 33.890625 
z
M 15.921875 35.296875 
Q 15.921875 26.03125 18.109375 18.921875 
Q 20.3125 11.8125 23.84375 7.953125 
Q 27.390625 4.109375 31.203125 2.25 
Q 35.015625 0.390625 38.921875 0.390625 
Q 42.71875 0.390625 46.453125 2.1875 
Q 50.203125 4 53.765625 7.8125 
Q 57.328125 11.625 59.5625 18.75 
Q 61.8125 25.875 61.8125 35.296875 
Q 61.8125 42.625 60.25 48.5 
Q 58.6875 54.390625 56.25 57.953125 
Q 53.8125 61.53125 50.65625 63.875 
Q 47.515625 66.21875 44.5625 67.109375 
Q 41.609375 68.015625 38.8125 68.015625 
Q 35.296875 68.015625 31.640625 66.453125 
Q 27.984375 64.890625 24.296875 61.453125 
Q 20.609375 58.015625 18.265625 51.25 
Q 15.921875 44.484375 15.921875 35.296875 
z
" id="CMUSerif-Roman-4f"/>
     <path d="M 2.78125 0 
L 2.78125 3.078125 
Q 8.109375 3.078125 9.34375 3.734375 
Q 10.59375 4.390625 10.59375 7.625 
L 10.59375 34.421875 
Q 10.59375 38.140625 9.296875 39.0625 
Q 8.015625 39.984375 2.78125 39.984375 
L 2.78125 43.109375 
L 16.703125 44.1875 
L 16.703125 33.203125 
Q 18.109375 37.5 21.109375 40.84375 
Q 24.125 44.1875 29 44.1875 
Q 32.234375 44.1875 34.296875 42.375 
Q 36.375 40.578125 36.375 38.09375 
Q 36.375 35.890625 35.03125 34.78125 
Q 33.6875 33.6875 32.078125 33.6875 
Q 30.28125 33.6875 29.03125 34.828125 
Q 27.78125 35.984375 27.78125 37.984375 
Q 27.78125 39.203125 28.34375 40.15625 
Q 28.90625 41.109375 29.34375 41.453125 
Q 29.78125 41.796875 30.078125 41.890625 
Q 29.890625 42 29 42 
Q 23.484375 42 20.328125 36.5 
Q 17.1875 31 17.1875 23.1875 
L 17.1875 7.8125 
Q 17.1875 4.9375 18.375 4 
Q 19.578125 3.078125 24.8125 3.078125 
L 26.90625 3.078125 
L 26.90625 0 
Q 22.90625 0.296875 14.203125 0.296875 
Q 12.984375 0.296875 11.078125 0.25 
Q 9.1875 0.203125 6.6875 0.09375 
Q 4.203125 0 2.78125 0 
z
" id="CMUSerif-Roman-72"/>
    </defs>
    <g transform="translate(708.66325 46.20375)scale(0.288 -0.288)">
     <use xlink:href="#CMUSerif-Roman-52"/>
     <use x="73.583984" xlink:href="#CMUSerif-Roman-65"/>
     <use x="117.96875" xlink:href="#CMUSerif-Roman-64"/>
     <use x="173.4375" xlink:href="#CMUSerif-Roman-75"/>
     <use x="228.90625" xlink:href="#CMUSerif-Roman-63"/>
     <use x="273.291016" xlink:href="#CMUSerif-Roman-65"/>
     <use x="317.675781" xlink:href="#CMUSerif-Roman-64"/>
     <use x="373.144531" xlink:href="#CMUSerif-Roman-20"/>
     <use x="406.396484" xlink:href="#CMUSerif-Roman-4f"/>
     <use x="484.082031" xlink:href="#CMUSerif-Roman-72"/>
     <use x="523.144531" xlink:href="#CMUSerif-Roman-64"/>
     <use x="578.613281" xlink:href="#CMUSerif-Roman-65"/>
     <use x="622.998047" xlink:href="#CMUSerif-Roman-72"/>
     <use x="662.060547" xlink:href="#CMUSerif-Roman-20"/>
     <use x="695.3125" xlink:href="#CMUSerif-Roman-4d"/>
     <use x="786.865234" xlink:href="#CMUSerif-Roman-6f"/>
     <use x="836.865234" xlink:href="#CMUSerif-Roman-64"/>
     <use x="892.333984" xlink:href="#CMUSerif-Roman-65"/>
     <use x="936.71875" xlink:href="#CMUSerif-Roman-6c"/>
    </g>
   </g>
  </g>
 </g>
 <defs>
  <clipPath id="pa05a8ebe77">
   <rect height="369.94375" width="408.04" x="116.48" y="52.20375"/>
  </clipPath>
  <clipPath id="pe14bd4341b">
   <rect height="369.94375" width="408.04" x="643.52" y="52.20375"/>
  </clipPath>
 </defs>
</svg>
